{"glyphs":{"0":{"ha":728,"x_min":0,"x_max":0,"o":"m 824 518 b 592 997 857 699 835 968 b 81 499 358 1025 150 796 b 349 -7 33 300 67 6 b 824 518 611 -19 779 279 z m 311 519 b 565 821 361 685 463 849 b 590 496 656 797 615 583 b 357 163 565 403 474 157 b 311 519 233 168 276 404 z "},"1":{"ha":500,"x_min":0,"x_max":0,"o":"m 319 0 b 629 925 349 92 536 710 l 440 982 l 243 746 l 349 719 l 122 0 z "},"2":{"ha":757,"x_min":0,"x_max":0,"o":"m 56 4 b 644 -25 136 28 526 25 l 738 193 l 333 186 b 836 689 435 297 801 446 b 579 982 856 833 768 969 b 168 743 411 993 254 939 l 333 615 b 578 797 353 736 489 840 b 547 550 675 750 610 607 b 22 115 382 399 82 249 z "},"3":{"ha":776,"x_min":0,"x_max":0,"o":"m 826 785 b 557 978 814 935 657 976 b 197 785 415 979 286 926 l 363 671 b 639 743 447 817 621 818 b 383 583 668 622 499 586 l 349 449 b 543 288 507 460 564 376 b 325 118 515 172 414 100 b 310 333 247 136 226 238 l 68 374 b 331 -24 -51 131 119 -17 b 768 256 538 -31 733 64 b 644 514 788 363 744 476 b 826 785 778 564 835 690 z "},"4":{"ha":767,"x_min":0,"x_max":0,"o":"m 738 371 l 925 963 l 722 944 l 513 946 b 65 347 432 778 176 453 l 92 183 l 503 219 l 446 0 l 625 0 l 697 240 l 739 246 l 801 371 z m 311 371 l 646 772 l 540 371 z "},"5":{"ha":807,"x_min":0,"x_max":0,"o":"m 461 779 b 794 768 567 779 750 771 l 871 978 b 335 947 660 939 429 943 b 188 608 274 783 232 710 l 246 461 b 551 285 407 508 590 443 b 353 132 531 201 442 114 b 338 347 275 150 254 251 l 96 388 b 344 -11 -24 144 133 6 b 772 421 593 -31 801 201 b 406 636 750 585 625 661 z "},"6":{"ha":674,"x_min":0,"x_max":0,"o":"m 340 585 b 725 804 415 713 626 804 l 640 990 b 103 519 393 978 178 708 b 251 -8 18 319 7 42 b 685 268 471 -54 628 94 b 474 613 743 444 665 613 b 340 585 422 613 372 599 z m 404 189 b 225 207 335 128 253 138 b 293 439 200 278 229 381 b 471 426 365 501 440 492 b 404 189 499 365 472 253 z "},"7":{"ha":665,"x_min":0,"x_max":0,"o":"m 579 781 b 69 60 536 721 171 240 l 300 -26 b 850 832 351 218 797 831 l 865 963 b 278 960 760 946 481 910 l 194 754 b 579 781 240 758 465 758 z "},"8":{"ha":775,"x_min":0,"x_max":0,"o":"m 460 758 b 590 842 483 801 533 850 b 624 706 649 832 649 756 b 486 615 599 656 551 603 b 460 758 424 629 435 711 z m 824 756 b 618 976 840 885 747 968 b 276 771 442 988 326 886 b 278 569 246 701 244 628 b 50 292 154 513 72 401 b 326 -12 15 124 122 -6 b 753 315 517 -19 715 114 b 714 506 767 383 754 451 b 676 543 703 522 689 532 b 679 546 676 543 678 544 b 824 756 768 603 814 676 z m 340 435 b 519 431 408 492 486 488 b 456 217 549 371 518 275 b 279 222 385 161 307 165 b 340 435 244 285 278 378 z "},"9":{"ha":719,"x_min":0,"x_max":0,"o":"m 465 379 b 81 160 390 251 179 160 l 165 -26 b 703 444 413 -14 628 256 b 568 972 800 667 813 922 b 121 696 349 1018 178 869 b 332 351 63 519 140 351 b 465 379 383 351 433 365 z m 401 775 b 588 761 471 836 560 831 b 513 525 610 694 576 583 b 318 542 440 463 343 474 b 401 775 296 611 333 711 z "},"A":{"ha":1844,"x_min":0,"x_max":0,"o":"m 1264 608 b 481 106 1072 400 721 106 b 257 269 376 106 297 169 l -15 96 b 403 -176 60 -104 244 -176 b 1154 236 667 -172 886 -28 l 1492 236 b 1518 -392 1392 -39 1390 -265 l 1754 -242 b 2174 1072 1513 103 1863 685 l 2058 1135 l 2063 1174 b 1865 1161 1994 1194 1933 1190 b 1751 1178 1831 1164 1793 1169 b 461 856 1358 1249 572 1399 b 900 414 410 604 626 379 l 1006 732 b 764 931 867 703 725 785 b 1701 1050 839 1221 1421 1096 b 1264 608 1592 956 1456 813 z m 1947 1025 b 1549 376 1776 801 1640 579 l 1290 376 l 1399 493 b 1947 1025 1624 739 1803 981 z "},"Æ":{"ha":2704,"x_min":0,"x_max":0,"o":"m 1264 608 b 388 124 1046 371 619 22 b 257 269 331 144 279 207 l -15 96 b 256 -153 1 0 128 -110 b 1154 236 536 -250 875 -29 l 1492 236 b 1768 -215 1461 39 1543 -162 b 2618 376 2122 -297 2442 -53 l 2275 376 b 1926 -53 2281 219 2147 -33 b 1868 463 1706 -71 1624 263 b 2274 596 1989 561 2150 603 b 2422 546 2333 567 2390 549 l 2503 658 b 2322 715 2472 683 2350 714 b 2281 867 2283 740 2271 810 b 2508 967 2304 999 2468 1046 b 2464 793 2533 918 2493 847 l 2571 746 b 2572 751 2571 747 2572 749 l 2574 751 b 2932 1064 2669 926 2800 1000 l 2792 1232 b 2611 1046 2738 1201 2671 1128 b 2443 1179 2585 1121 2521 1163 b 2140 1090 2346 1199 2222 1172 l 2058 1135 l 2063 1174 b 1865 1161 1994 1194 1933 1190 b 1751 1178 1831 1164 1793 1169 b 461 856 1358 1249 572 1399 b 900 414 410 604 626 379 l 1006 732 b 764 931 867 703 725 785 b 1701 1050 839 1221 1421 1096 b 1264 608 1592 956 1456 813 z m 1946 1026 b 1533 376 1771 806 1625 603 l 1293 376 b 1399 493 1331 415 1365 454 b 1946 1026 1615 746 1800 983 z m 1913 703 b 2056 918 1957 778 2006 849 b 2100 738 2046 847 2065 788 b 1913 703 2039 736 1975 725 z "},"Á":{"ha":1844,"x_min":0,"x_max":0,"o":"m 1264 608 b 388 124 1046 371 619 22 b 257 269 331 144 279 207 l -15 96 b 256 -153 1 0 128 -110 b 1154 236 536 -250 875 -29 l 1492 236 b 1518 -392 1392 -39 1390 -265 l 1754 -242 b 2174 1072 1513 103 1863 685 l 2058 1135 l 2063 1174 b 1865 1161 1994 1194 1933 1190 b 1751 1178 1831 1164 1793 1169 b 461 856 1358 1249 572 1399 b 900 414 410 604 626 379 l 1006 732 b 764 931 867 703 725 785 b 1701 1050 839 1221 1421 1096 b 1264 608 1592 956 1456 813 z m 1949 1026 b 1549 376 1778 801 1640 579 l 1293 376 b 1399 493 1331 415 1365 454 b 1949 1026 1617 747 1801 986 z m 1986 1286 l 2176 1493 l 2018 1493 l 1899 1286 z "},"Ă":{"ha":1844,"x_min":0,"x_max":0,"o":"m 1264 608 b 388 124 1046 371 619 22 b 257 269 331 144 279 207 l -15 96 b 256 -153 1 0 128 -110 b 1154 236 536 -250 875 -29 l 1492 236 b 1518 -392 1392 -39 1390 -265 l 1754 -242 b 2174 1072 1513 103 1863 685 l 2058 1135 l 2063 1174 b 1865 1161 1994 1194 1933 1190 b 1751 1178 1831 1164 1793 1169 b 461 856 1358 1249 572 1399 b 900 414 410 604 626 379 l 1006 732 b 764 931 867 703 725 785 b 1701 1050 839 1221 1421 1096 b 1264 608 1592 956 1456 813 z m 1949 1026 b 1549 376 1778 801 1640 579 l 1293 376 b 1399 493 1331 415 1365 454 b 1949 1026 1617 747 1801 986 z m 2249 1463 b 2201 1375 2251 1439 2232 1397 b 1999 1364 2144 1340 2056 1336 b 1972 1451 1968 1383 1961 1426 l 1901 1451 b 1944 1290 1882 1392 1897 1331 b 2247 1319 2022 1228 2160 1243 b 2325 1460 2296 1360 2321 1413 l 2326 1464 z "},"Â":{"ha":1844,"x_min":0,"x_max":0,"o":"m 1264 608 b 388 124 1046 371 619 22 b 257 269 331 144 279 207 l -15 96 b 256 -153 1 0 128 -110 b 1154 236 536 -250 875 -29 l 1492 236 b 1518 -392 1392 -39 1390 -265 l 1754 -242 b 2174 1072 1513 103 1863 685 l 2058 1135 l 2063 1174 b 1865 1161 1994 1194 1933 1190 b 1751 1178 1831 1164 1793 1169 b 461 856 1358 1249 572 1399 b 900 414 410 604 626 379 l 1006 732 b 764 931 867 703 725 785 b 1701 1050 839 1221 1421 1096 b 1264 608 1592 956 1456 813 z m 1949 1026 b 1549 376 1778 801 1640 579 l 1293 376 b 1399 493 1331 415 1365 454 b 1949 1026 1617 747 1801 986 z m 1853 1271 l 2018 1271 l 2110 1350 l 2157 1271 l 2288 1271 l 2168 1478 l 2099 1478 z "},"Ä":{"ha":1844,"x_min":0,"x_max":0,"o":"m 1264 608 b 388 124 1046 371 619 22 b 257 269 331 144 279 207 l -15 96 b 256 -153 1 0 128 -110 b 1154 236 536 -250 875 -29 l 1492 236 b 1518 -392 1392 -39 1390 -265 l 1754 -242 b 2174 1072 1513 103 1863 685 l 2058 1135 l 2063 1174 b 1865 1161 1994 1194 1933 1190 b 1751 1178 1831 1164 1793 1169 b 461 856 1358 1249 572 1399 b 900 414 410 604 626 379 l 1006 732 b 764 931 867 703 725 785 b 1701 1050 839 1221 1421 1096 b 1264 608 1592 956 1456 813 z m 1949 1026 b 1549 376 1778 801 1640 579 l 1293 376 b 1399 493 1331 415 1365 454 b 1949 1026 1617 747 1801 986 z m 2017 1344 b 1943 1436 2028 1396 1997 1436 b 1832 1344 1892 1436 1843 1396 b 1904 1251 1821 1290 1853 1251 b 2017 1344 1958 1251 2006 1290 z m 2281 1344 b 2207 1436 2292 1396 2261 1436 b 2096 1344 2156 1436 2107 1396 b 2168 1251 2085 1290 2117 1251 b 2281 1344 2222 1251 2269 1290 z "},"À":{"ha":1844,"x_min":0,"x_max":0,"o":"m 1264 608 b 388 124 1046 371 619 22 b 257 269 331 144 279 207 l -15 96 b 256 -153 1 0 128 -110 b 1154 236 536 -250 875 -29 l 1492 236 b 1518 -392 1392 -39 1390 -265 l 1754 -242 b 2174 1072 1513 103 1863 685 l 2058 1135 l 2063 1174 b 1865 1161 1994 1194 1933 1190 b 1751 1178 1831 1164 1793 1169 b 461 856 1358 1249 572 1399 b 900 414 410 604 626 379 l 1006 732 b 764 931 867 703 725 785 b 1701 1050 839 1221 1421 1096 b 1264 608 1592 956 1456 813 z m 1949 1026 b 1549 376 1778 801 1640 579 l 1293 376 b 1399 493 1331 415 1365 454 b 1949 1026 1617 747 1801 986 z m 2040 1271 l 1921 1478 l 1763 1478 l 1953 1271 z "},"Ą":{"ha":1844,"x_min":0,"x_max":0,"o":"m 1600 -151 b 1465 -133 1561 -157 1465 -175 b 1668 -6 1467 -107 1569 -25 l 1665 0 l 1675 0 b 2174 1072 1657 336 1928 765 l 2058 1135 l 2063 1174 b 1865 1161 1994 1194 1933 1190 b 1751 1178 1831 1164 1793 1169 b 461 856 1358 1249 572 1399 b 900 414 410 604 626 379 l 1006 732 b 764 931 867 703 725 785 b 1701 1050 839 1221 1421 1096 b 1264 608 1592 956 1456 813 b 388 124 1046 371 619 22 b 257 269 331 144 279 207 l -15 96 b 256 -153 1 0 128 -110 b 1154 236 536 -250 875 -29 l 1492 236 b 1429 0 1461 151 1440 74 l 1444 0 b 1333 -158 1386 -43 1339 -99 b 1564 -287 1322 -260 1461 -312 z m 1949 1026 b 1549 376 1776 801 1640 579 l 1293 376 b 1399 493 1331 415 1365 454 b 1949 1026 1617 747 1801 985 z "},"Å":{"ha":1844,"x_min":0,"x_max":0,"o":"m 1264 608 b 388 124 1046 371 619 22 b 257 269 331 144 279 207 l -15 96 b 256 -153 1 0 128 -110 b 1154 236 536 -250 875 -29 l 1492 236 b 1518 -392 1392 -39 1390 -265 l 1754 -242 b 2174 1072 1513 103 1863 685 l 2058 1135 l 2063 1174 b 1865 1161 1994 1194 1933 1190 b 1751 1178 1831 1164 1793 1169 b 461 856 1358 1249 572 1399 b 900 414 410 604 626 379 l 1006 732 b 764 931 867 703 725 785 b 1701 1050 839 1221 1421 1096 b 1264 608 1592 956 1456 813 z m 1949 1026 b 1549 376 1778 801 1640 579 l 1293 376 b 1399 493 1331 415 1365 454 b 1949 1026 1617 747 1801 986 z m 2121 1235 b 2274 1324 2192 1224 2257 1260 b 2161 1472 2294 1400 2235 1469 b 2024 1365 2100 1476 2036 1432 b 2121 1235 2014 1303 2054 1244 z m 2190 1382 b 2181 1317 2208 1364 2203 1329 b 2107 1321 2157 1304 2125 1306 b 2117 1389 2086 1340 2092 1376 b 2190 1382 2140 1401 2172 1399 z "},"Ã":{"ha":1844,"x_min":0,"x_max":0,"o":"m 1264 608 b 388 124 1046 371 619 22 b 257 269 331 144 279 207 l -15 96 b 256 -153 1 0 128 -110 b 1154 236 536 -250 875 -29 l 1492 236 b 1518 -392 1392 -39 1390 -265 l 1754 -242 b 2174 1072 1513 103 1863 685 l 2058 1135 l 2063 1174 b 1865 1161 1994 1194 1933 1190 b 1751 1178 1831 1164 1793 1169 b 461 856 1358 1249 572 1399 b 900 414 410 604 626 379 l 1006 732 b 764 931 867 703 725 785 b 1701 1050 839 1221 1421 1096 b 1264 608 1592 956 1456 813 z m 1949 1026 b 1549 376 1778 801 1640 579 l 1293 376 b 1399 493 1331 415 1365 454 b 1949 1026 1617 747 1801 986 z m 2186 1456 b 2118 1371 2189 1404 2147 1372 b 1865 1500 2017 1365 1992 1504 b 1668 1276 1776 1497 1682 1424 l 1808 1276 b 1867 1379 1796 1317 1831 1376 b 2110 1256 1950 1386 1981 1258 b 2318 1450 2235 1253 2304 1378 z "},"B":{"ha":1674,"x_min":0,"x_max":0,"o":"m 1031 642 b 361 104 850 363 611 63 b 199 214 301 111 236 160 l -22 6 b 300 -171 17 -85 167 -160 b 1167 513 690 -204 922 121 l 1204 571 l 1201 567 b 1390 529 1219 560 1278 532 b 1232 181 1511 440 1433 181 b 1129 251 1185 181 1143 208 l 885 88 b 1221 -85 963 -24 1076 -85 b 1518 572 1564 -76 1747 357 b 1749 828 1572 590 1724 674 b 1635 1090 1765 935 1719 1024 b 1813 1156 1701 1136 1758 1156 l 1761 1324 b 1463 1181 1665 1317 1565 1268 b 1000 1236 1328 1229 1163 1249 b 250 719 656 1211 310 1047 b 656 294 204 465 389 253 l 753 608 b 521 738 617 578 522 642 b 997 1092 517 936 760 1068 b 1346 1068 1124 1104 1247 1094 b 1031 642 1244 958 1140 815 z m 1425 661 b 1289 700 1357 692 1324 699 b 1514 983 1372 821 1447 914 b 1574 858 1553 949 1574 907 b 1425 661 1572 769 1501 681 z "},"C":{"ha":1318,"x_min":0,"x_max":0,"o":"m 658 31 b 540 422 535 39 465 186 b 756 440 608 421 681 426 b 1451 1129 1200 524 1618 904 b 1185 1218 1404 1190 1299 1221 b 347 681 864 1207 538 965 b 271 818 297 715 268 763 b 490 975 275 904 361 978 l 365 1267 b 0 776 114 1256 -42 993 b 243 488 24 650 113 549 b 481 -129 125 190 218 -65 b 1336 429 778 -201 1231 43 l 1024 429 b 658 31 1011 217 863 17 z m 1353 1032 b 807 621 1393 931 1210 703 b 621 604 744 608 681 603 b 1353 1032 882 1079 1296 1143 z "},"\r":{"ha":504,"x_min":0,"x_max":0,"o":""},"Ć":{"ha":1318,"x_min":0,"x_max":0,"o":"m 658 31 b 540 422 535 39 465 186 b 756 440 608 421 681 426 b 1451 1129 1200 524 1618 904 b 1185 1218 1404 1190 1299 1221 b 347 681 864 1207 538 965 b 271 818 297 715 268 763 b 490 975 275 904 361 978 l 365 1267 b 0 776 114 1256 -42 993 b 243 488 24 650 113 549 b 481 -129 125 190 218 -65 b 1336 429 778 -201 1231 43 l 1024 429 b 658 31 1011 217 863 17 z m 1353 1032 b 807 621 1393 931 1210 703 b 621 604 744 608 681 603 b 1353 1032 882 1079 1296 1143 z m 1158 1290 l 1349 1497 l 1190 1497 l 1071 1290 z "},"Č":{"ha":1318,"x_min":0,"x_max":0,"o":"m 658 31 b 540 422 535 39 465 186 b 756 440 608 421 681 426 b 1451 1129 1200 524 1618 904 b 1185 1218 1404 1190 1299 1221 b 347 681 864 1207 538 965 b 271 818 297 715 268 763 b 490 975 275 904 361 978 l 365 1267 b 0 776 114 1256 -42 993 b 243 488 24 650 113 549 b 481 -129 125 190 218 -65 b 1336 429 778 -201 1231 43 l 1024 429 b 658 31 1011 217 863 17 z m 1353 1032 b 807 621 1393 931 1210 703 b 621 604 744 608 681 603 b 1353 1032 882 1079 1296 1143 z m 1431 1519 l 1307 1519 l 1215 1440 l 1168 1519 l 1038 1519 l 1157 1313 l 1226 1313 z "},"Ç":{"ha":1318,"x_min":0,"x_max":0,"o":"m 629 -140 b 1336 429 910 -121 1247 103 l 1024 429 b 658 31 1011 217 863 17 b 540 422 535 39 465 186 b 756 440 608 421 681 426 b 1451 1129 1200 524 1618 904 b 1185 1218 1404 1190 1299 1221 b 347 681 864 1207 538 965 b 271 818 297 715 268 763 b 490 975 275 904 361 978 l 365 1267 b 0 776 114 1256 -42 993 b 243 488 24 650 113 549 b 481 -129 125 190 218 -65 b 486 -131 482 -129 485 -129 l 414 -201 l 481 -290 b 572 -326 532 -286 572 -308 b 400 -324 572 -392 504 -385 l 296 -446 b 671 -401 431 -587 622 -515 b 572 -193 706 -319 672 -211 z m 1353 1032 b 807 621 1393 931 1210 703 b 621 604 744 608 681 603 b 1353 1032 882 1079 1296 1143 z "},"D":{"ha":1682,"x_min":0,"x_max":0,"o":"m 1051 642 b 382 104 871 363 632 63 b 219 214 322 111 257 160 l -1 6 b 321 -171 38 -85 188 -160 b 793 -1 508 -186 660 -119 b 990 -107 843 -56 900 -89 b 1701 543 1383 -183 1692 163 b 1544 994 1706 728 1647 881 b 1833 1156 1658 1111 1753 1157 l 1782 1324 b 1406 1110 1661 1314 1538 1242 b 924 1231 1274 1192 1107 1233 b 158 708 569 1225 194 1035 b 597 303 131 463 308 264 l 701 603 b 453 726 556 574 460 642 b 919 1090 438 910 672 1085 b 1300 992 1074 1094 1203 1057 b 1051 642 1219 894 1138 778 z m 1093 153 b 992 219 1047 158 1007 179 b 1188 513 1058 308 1122 408 b 1431 864 1278 657 1358 772 b 1515 565 1490 778 1521 675 b 1093 153 1492 268 1272 129 z "},"Ď":{"ha":1682,"x_min":0,"x_max":0,"o":"m 1051 642 b 382 104 871 363 632 63 b 219 214 322 111 257 160 l -1 6 b 321 -171 38 -85 188 -160 b 793 -1 508 -186 660 -119 b 990 -107 843 -56 900 -89 b 1701 543 1383 -183 1692 163 b 1544 994 1706 728 1647 881 b 1833 1156 1658 1111 1753 1157 l 1782 1324 b 1406 1110 1661 1314 1538 1242 b 924 1231 1274 1192 1107 1233 b 158 708 569 1225 194 1035 b 597 303 131 463 308 264 l 701 603 b 453 726 556 574 460 642 b 919 1090 438 910 672 1085 b 1300 992 1074 1094 1203 1057 b 1051 642 1219 894 1138 778 z m 1093 153 b 992 219 1047 158 1007 179 b 1188 513 1058 308 1122 408 b 1431 864 1278 657 1358 772 b 1515 565 1490 778 1521 675 b 1093 153 1492 268 1272 129 z m 1621 1486 l 1497 1486 l 1406 1407 l 1358 1486 l 1228 1486 l 1347 1279 l 1417 1279 z "},"Đ":{"ha":1682,"x_min":0,"x_max":0,"o":"m 1051 642 b 992 553 1032 611 1013 582 l 854 553 l 778 440 l 910 440 b 382 104 754 238 571 72 b 219 214 322 111 257 160 l -1 6 b 321 -171 38 -85 188 -160 b 793 -1 508 -186 660 -119 b 990 -107 843 -56 900 -89 b 1701 543 1383 -183 1692 163 b 1544 994 1706 728 1647 881 b 1833 1156 1658 1111 1753 1157 l 1782 1324 b 1406 1110 1661 1314 1538 1242 b 924 1231 1274 1192 1107 1233 b 158 708 569 1225 194 1035 b 597 303 131 463 308 264 l 701 603 b 453 726 556 574 460 642 b 919 1090 438 910 672 1085 b 1300 992 1074 1094 1203 1057 b 1051 642 1219 894 1138 778 z m 1213 553 b 1431 864 1292 678 1364 782 b 1515 565 1490 778 1521 675 b 1093 153 1492 268 1272 129 b 992 219 1047 158 1007 179 b 1142 440 1042 288 1092 363 l 1265 440 l 1331 553 z "},"E":{"ha":1204,"x_min":0,"x_max":0,"o":"m 639 997 b 675 761 608 903 629 824 b 164 549 499 758 304 693 b 321 -140 -86 293 -18 -64 b 1238 449 653 -215 1061 19 l 894 449 b 518 13 900 292 739 32 b 464 482 297 -6 256 292 b 844 624 578 585 726 629 b 994 574 904 593 963 576 l 1075 686 b 894 743 1044 711 922 742 b 853 894 856 768 843 838 b 1081 994 876 1026 1040 1074 b 1036 821 1106 946 1065 875 l 1143 774 b 1144 779 1143 775 1144 776 l 1146 779 b 1504 1092 1242 954 1372 1028 l 1364 1260 b 1183 1074 1310 1229 1243 1156 b 1015 1207 1157 1149 1093 1190 b 639 997 881 1235 696 1174 z "},"É":{"ha":1204,"x_min":0,"x_max":0,"o":"m 639 997 b 675 761 608 903 629 824 b 164 549 499 758 304 693 b 321 -140 -86 293 -18 -64 b 1238 449 653 -215 1061 19 l 894 449 b 518 13 900 292 739 32 b 464 482 297 -6 256 292 b 844 624 578 585 726 629 b 994 574 904 593 963 576 l 1075 686 b 894 743 1044 711 922 742 b 853 894 856 768 843 838 b 1081 994 876 1026 1040 1074 b 1036 821 1106 946 1065 875 l 1143 774 b 1144 779 1143 775 1144 776 l 1146 779 b 1504 1092 1242 954 1372 1028 l 1364 1260 b 1183 1074 1310 1229 1243 1156 b 1015 1207 1157 1149 1093 1190 b 639 997 881 1235 696 1174 z m 1117 1307 l 1307 1514 l 1149 1514 l 1029 1307 z "},"Ě":{"ha":1204,"x_min":0,"x_max":0,"o":"m 639 997 b 675 761 608 903 629 824 b 164 549 499 758 304 693 b 321 -140 -86 293 -18 -64 b 1238 449 653 -215 1061 19 l 894 449 b 518 13 900 292 739 32 b 464 482 297 -6 256 292 b 844 624 578 585 726 629 b 994 574 904 593 963 576 l 1075 686 b 894 743 1044 711 922 742 b 853 894 856 768 843 838 b 1081 994 876 1026 1040 1074 b 1036 821 1106 946 1065 875 l 1143 774 b 1144 779 1143 775 1144 776 l 1146 779 b 1504 1092 1242 954 1372 1028 l 1364 1260 b 1183 1074 1310 1229 1243 1156 b 1015 1207 1157 1149 1093 1190 b 639 997 881 1235 696 1174 z m 1322 1482 l 1199 1482 l 1107 1403 l 1060 1482 l 929 1482 l 1049 1275 l 1118 1275 z "},"Ê":{"ha":1204,"x_min":0,"x_max":0,"o":"m 639 997 b 675 761 608 903 629 824 b 164 549 499 758 304 693 b 321 -140 -86 293 -18 -64 b 1238 449 653 -215 1061 19 l 894 449 b 518 13 900 292 739 32 b 464 482 297 -6 256 292 b 844 624 578 585 726 629 b 994 574 904 593 963 576 l 1075 686 b 894 743 1044 711 922 742 b 853 894 856 768 843 838 b 1081 994 876 1026 1040 1074 b 1036 821 1106 946 1065 875 l 1143 774 b 1144 779 1143 775 1144 776 l 1146 779 b 1504 1092 1242 954 1372 1028 l 1364 1260 b 1183 1074 1310 1229 1243 1156 b 1015 1207 1157 1149 1093 1190 b 639 997 881 1235 696 1174 z m 867 1300 l 1032 1300 l 1124 1379 l 1171 1300 l 1301 1300 l 1182 1507 l 1113 1507 z "},"Ë":{"ha":1204,"x_min":0,"x_max":0,"o":"m 639 997 b 675 761 608 903 629 824 b 164 549 499 758 304 693 b 321 -140 -86 293 -18 -64 b 1238 449 653 -215 1061 19 l 894 449 b 518 13 900 292 739 32 b 464 482 297 -6 256 292 b 844 624 578 585 726 629 b 994 574 904 593 963 576 l 1075 686 b 894 743 1044 711 922 742 b 853 894 856 768 843 838 b 1081 994 876 1026 1040 1074 b 1036 821 1106 946 1065 875 l 1143 774 b 1144 779 1143 775 1144 776 l 1146 779 b 1504 1092 1242 954 1372 1028 l 1364 1260 b 1183 1074 1310 1229 1243 1156 b 1015 1207 1157 1149 1093 1190 b 639 997 881 1235 696 1174 z m 1318 1404 b 1244 1496 1329 1456 1299 1496 b 1133 1404 1193 1496 1144 1456 b 1206 1311 1122 1350 1154 1311 b 1318 1404 1260 1311 1307 1350 z m 1054 1404 b 981 1496 1065 1456 1035 1496 b 869 1404 929 1496 881 1456 b 942 1311 858 1350 890 1311 b 1054 1404 996 1311 1043 1350 z "},"È":{"ha":1204,"x_min":0,"x_max":0,"o":"m 639 997 b 675 761 608 903 629 824 b 164 549 499 758 304 693 b 321 -140 -86 293 -18 -64 b 1238 449 653 -215 1061 19 l 894 449 b 518 13 900 292 739 32 b 464 482 297 -6 256 292 b 844 624 578 585 726 629 b 994 574 904 593 963 576 l 1075 686 b 894 743 1044 711 922 742 b 853 894 856 768 843 838 b 1081 994 876 1026 1040 1074 b 1036 821 1106 946 1065 875 l 1143 774 b 1144 779 1143 775 1144 776 l 1146 779 b 1504 1092 1242 954 1372 1028 l 1364 1260 b 1183 1074 1310 1229 1243 1156 b 1015 1207 1157 1149 1093 1190 b 639 997 881 1235 696 1174 z m 1182 1271 l 1063 1478 l 904 1478 l 1094 1271 z "},"Ę":{"ha":1204,"x_min":0,"x_max":0,"o":"m 442 -285 b 306 -290 404 -297 313 -332 b 436 -154 303 -268 363 -197 b 1238 449 742 -160 1081 68 l 894 449 b 518 13 900 292 739 32 b 464 482 297 -6 256 292 b 844 624 578 585 726 629 b 994 574 904 593 963 576 l 1075 686 b 894 743 1044 711 922 742 b 853 894 856 768 843 838 b 1081 994 876 1026 1040 1074 b 1036 821 1106 946 1065 875 l 1143 774 b 1144 779 1143 775 1144 776 l 1146 779 b 1504 1092 1242 954 1372 1028 l 1364 1260 b 1183 1074 1310 1229 1243 1156 b 1015 1207 1157 1149 1093 1190 b 639 997 881 1235 696 1174 b 675 761 608 903 629 824 b 164 549 499 758 304 693 b 292 -133 -79 300 -21 -43 b 181 -337 229 -192 175 -265 b 429 -425 186 -440 332 -468 z "},"Ð":{"ha":1682,"x_min":0,"x_max":0,"o":"m 892 417 b 382 104 740 224 564 74 b 219 214 322 111 257 160 l -1 6 b 321 -171 38 -85 188 -160 b 793 -1 508 -186 660 -119 b 990 -107 843 -56 900 -89 b 1701 543 1383 -183 1692 163 b 1544 994 1706 728 1647 881 b 1833 1156 1658 1111 1753 1157 l 1782 1324 b 1406 1110 1661 1314 1538 1242 b 924 1231 1274 1192 1107 1233 b 158 708 569 1225 194 1035 b 597 303 131 463 308 264 l 701 603 b 453 726 556 574 460 642 b 919 1090 438 910 672 1085 b 1300 992 1074 1094 1203 1057 b 1051 642 1219 894 1138 778 b 1003 569 1036 617 1019 593 l 840 569 l 786 417 z m 1093 153 b 992 219 1047 158 1007 179 b 1126 417 1038 281 1082 347 l 1247 417 l 1308 569 l 1224 569 b 1431 864 1299 688 1368 785 b 1515 565 1490 778 1521 675 b 1093 153 1492 268 1272 129 z "},"€":{"ha":826,"x_min":0,"x_max":0,"o":"m 860 428 b 606 146 868 319 768 135 b 460 339 492 157 454 238 l 642 340 l 697 474 l 485 467 b 508 533 490 489 500 511 l 682 535 l 738 665 l 579 660 b 907 672 736 871 951 824 l 1211 815 b 460 860 1217 1081 778 1176 b 311 650 399 797 349 726 l 189 646 l 160 529 l 261 529 b 242 460 253 506 246 483 l 149 457 l 119 338 l 221 338 b 546 -31 207 144 321 -19 b 1074 296 779 -42 983 79 z "},"H":{"ha":1607,"x_min":0,"x_max":0,"o":"m 1051 642 b 382 104 871 363 632 63 b 219 214 322 111 257 160 l -1 -19 b 321 -196 38 -110 188 -185 b 1082 347 654 -224 874 28 l 1315 347 b 1578 -450 1182 10 1211 -332 l 1696 -178 b 1551 403 1419 -115 1464 190 b 2050 1083 1693 744 1918 990 l 1929 1204 b 1381 488 1817 1108 1567 846 l 1172 488 l 1188 513 b 1572 1024 1403 858 1486 982 b 1685 1042 1617 1026 1654 1032 l 1683 1043 l 1685 1043 l 1657 1208 b 1518 1178 1606 1204 1560 1194 b 269 751 1149 1161 383 1267 b 689 300 213 496 417 265 l 797 619 b 554 818 657 589 507 675 b 1321 1026 632 1056 1010 1039 b 1051 642 1244 939 1161 815 z "},"I":{"ha":1201,"x_min":0,"x_max":0,"o":"m 1697 1043 l 1658 1204 b 1532 1178 1613 1200 1571 1192 b 269 751 1168 1158 385 1272 b 689 300 213 496 417 265 l 797 619 b 554 818 657 589 507 675 b 1325 1028 632 1056 1010 1039 b 1051 642 1247 942 1163 818 b 382 104 871 363 632 63 b 219 214 322 111 257 160 l -1 -19 b 321 -196 38 -110 188 -185 b 1188 513 711 -229 943 121 b 1586 1025 1406 861 1496 985 b 1696 1043 1629 1028 1667 1033 z "},"Í":{"ha":1201,"x_min":0,"x_max":0,"o":"m 1697 1043 l 1658 1204 b 1532 1178 1613 1200 1571 1192 b 269 751 1168 1158 385 1272 b 689 300 213 496 417 265 l 797 619 b 554 818 657 589 507 675 b 1325 1028 632 1056 1010 1039 b 1051 642 1247 942 1163 818 b 382 104 871 363 632 63 b 219 214 322 111 257 160 l -1 -19 b 321 -196 38 -110 188 -185 b 1188 513 711 -229 943 121 b 1586 1025 1406 861 1496 985 b 1696 1043 1629 1028 1667 1033 z m 1454 1293 l 1644 1500 l 1486 1500 l 1367 1293 z "},"Î":{"ha":1201,"x_min":0,"x_max":0,"o":"m 1697 1043 l 1658 1204 b 1532 1178 1613 1200 1571 1192 b 269 751 1168 1158 385 1272 b 689 300 213 496 417 265 l 797 619 b 554 818 657 589 507 675 b 1325 1028 632 1056 1010 1039 b 1051 642 1247 942 1163 818 b 382 104 871 363 632 63 b 219 214 322 111 257 160 l -1 -19 b 321 -196 38 -110 188 -185 b 1188 513 711 -229 943 121 b 1586 1025 1406 861 1496 985 b 1696 1043 1629 1028 1667 1033 z m 1181 1261 l 1346 1261 l 1438 1340 l 1485 1261 l 1615 1261 l 1496 1468 l 1426 1468 z "},"Ï":{"ha":1201,"x_min":0,"x_max":0,"o":"m 1697 1043 l 1658 1204 b 1532 1178 1613 1200 1571 1192 b 269 751 1168 1158 385 1272 b 689 300 213 496 417 265 l 797 619 b 554 818 657 589 507 675 b 1325 1028 632 1056 1010 1039 b 1051 642 1247 942 1163 818 b 382 104 871 363 632 63 b 219 214 322 111 257 160 l -1 -19 b 321 -196 38 -110 188 -185 b 1188 513 711 -229 943 121 b 1586 1025 1406 861 1496 985 b 1696 1043 1629 1028 1667 1033 z m 1726 1392 b 1653 1483 1738 1443 1707 1483 b 1542 1392 1601 1483 1553 1443 b 1614 1299 1531 1338 1563 1299 b 1726 1392 1668 1299 1715 1338 z m 1463 1392 b 1389 1483 1474 1443 1443 1483 b 1278 1392 1338 1483 1289 1443 b 1350 1299 1267 1338 1299 1299 b 1463 1392 1404 1299 1451 1338 z "},"Ì":{"ha":1201,"x_min":0,"x_max":0,"o":"m 1697 1043 l 1658 1204 b 1532 1178 1613 1200 1571 1192 b 269 751 1168 1158 385 1272 b 689 300 213 496 417 265 l 797 619 b 554 818 657 589 507 675 b 1325 1028 632 1056 1010 1039 b 1051 642 1247 942 1163 818 b 382 104 871 363 632 63 b 219 214 322 111 257 160 l -1 -19 b 321 -196 38 -110 188 -185 b 1188 513 711 -229 943 121 b 1586 1025 1406 861 1496 985 b 1696 1043 1629 1028 1667 1033 z m 1497 1267 l 1378 1474 l 1219 1474 l 1410 1267 z "},"J":{"ha":1365,"x_min":0,"x_max":0,"o":"m 1011 261 b 110 -28 750 -137 326 -285 l -111 -303 b 1147 90 267 -661 838 -436 b 1664 983 1374 474 1532 843 b 1824 1043 1700 1022 1790 1043 l 1772 1211 b 1640 1181 1743 1208 1685 1199 b 353 751 1289 1153 471 1285 b 772 300 296 496 500 265 l 881 619 b 638 818 740 589 590 675 b 1481 1025 721 1074 1156 1035 b 1011 261 1340 833 1196 526 z "},"K":{"ha":1728,"x_min":0,"x_max":0,"o":"m 1660 1208 b 1492 1176 1600 1211 1533 1196 b 269 751 1113 1165 381 1254 b 689 300 213 496 417 265 l 797 619 b 554 818 657 589 507 675 b 1313 1028 631 1053 1001 1039 b 1051 642 1242 940 1161 817 b 382 128 871 363 632 86 b 219 238 322 135 257 183 l -1 4 b 321 -172 38 -86 188 -161 b 1118 403 674 -201 897 63 b 1154 396 1131 400 1142 397 b 1607 -367 1194 94 1338 -235 b 2164 -362 1733 -428 2003 -464 l 2076 -106 b 1813 -150 2013 -158 1910 -165 b 1299 403 1650 -124 1371 54 b 2164 1036 1628 490 1901 1010 l 2031 1254 b 1192 521 1788 1222 1531 538 b 1574 1024 1404 861 1488 983 b 1676 1035 1622 1026 1644 1024 z "},"L":{"ha":1378,"x_min":0,"x_max":0,"o":"m 631 -168 b 1276 -331 910 -126 1163 -147 l 1549 -167 b 694 21 1350 104 1010 75 l 544 -8 b 599 129 558 33 576 81 b 879 186 689 135 783 153 b 1658 924 1200 300 1578 661 b 1424 1200 1710 1089 1639 1218 b 424 363 1040 1168 653 776 b 318 492 363 389 322 432 b 508 679 307 576 383 663 l 342 950 b 46 379 96 900 -60 632 b 324 158 88 275 189 197 b 240 -94 288 71 258 -14 b 10 -175 131 -132 51 -164 l 42 -294 b 631 -168 132 -267 321 -214 z m 869 379 b 706 339 815 360 760 347 b 831 531 746 410 789 476 b 1519 1038 1161 960 1467 1103 b 869 379 1586 956 1267 515 z "},"Ĺ":{"ha":1378,"x_min":0,"x_max":0,"o":"m 631 -168 b 1276 -331 910 -126 1163 -147 l 1549 -167 b 694 21 1350 104 1010 75 l 544 -8 b 599 129 558 33 576 81 b 879 186 689 135 783 153 b 1631 1138 1306 338 1831 922 b 931 935 1482 1286 1199 1165 b 444 354 769 797 585 578 b 318 492 372 379 324 425 b 508 679 307 576 383 663 l 342 950 b 46 379 96 900 -60 632 b 332 156 89 272 194 194 b 238 -96 289 67 256 -19 b 10 -175 129 -132 51 -164 l 42 -294 b 631 -168 132 -267 321 -214 z m 869 379 b 706 339 815 360 760 347 b 831 531 746 410 789 476 b 1519 1038 1161 960 1467 1103 b 869 379 1586 956 1267 515 z m 1543 1269 l 1733 1476 l 1575 1476 l 1456 1269 z "},"M":{"ha":1999,"x_min":0,"x_max":0,"o":"m 2065 1197 l 1561 515 b 1846 1129 1638 689 1775 975 l 1631 1238 b 1365 843 1474 986 1382 867 b 836 1164 1317 1060 1072 1172 b 213 704 554 1153 265 996 b 613 285 169 454 350 244 l 708 596 b 481 722 575 564 482 626 b 1132 564 471 1185 1588 1071 b 356 139 879 294 608 142 b 138 210 244 138 174 171 l 19 -69 b 253 -154 69 -131 193 -154 b 1521 814 551 -151 946 0 b 1117 18 1469 647 1304 276 l 1449 18 b 1944 882 1543 364 1733 601 b 1771 -312 1738 561 1508 -122 l 2024 -146 b 2328 1197 1715 124 2082 892 z "},"N":{"ha":1751,"x_min":0,"x_max":0,"o":"m 1697 1043 l 1646 1204 b 1533 1179 1608 1204 1572 1197 b 269 751 1169 1158 385 1274 b 689 300 213 496 417 265 l 797 619 b 554 818 657 589 507 675 b 1349 1026 633 1061 1029 1039 b 1082 656 1274 942 1186 822 b 382 104 901 376 632 63 b 219 214 322 111 257 160 l -1 -19 b 321 -196 38 -110 188 -185 b 1188 513 711 -229 950 117 b 1365 799 1260 633 1317 726 b 1294 1 1329 625 1294 375 l 1290 -7 l 1493 -79 b 2389 1090 1711 564 2019 1083 b 2610 978 2476 1090 2550 1057 l 2817 1169 b 2494 1346 2778 1260 2628 1335 b 1483 375 2058 1382 1718 831 b 1601 1026 1490 601 1528 828 b 1696 1043 1638 1029 1669 1035 z "},"\u0000":{"ha":0,"x_min":0,"x_max":0,"o":""},"Ń":{"ha":1751,"x_min":0,"x_max":0,"o":"m 1697 1043 l 1646 1204 b 1533 1179 1608 1204 1572 1197 b 269 751 1169 1158 385 1274 b 689 300 213 496 417 265 l 797 619 b 554 818 657 589 507 675 b 1349 1026 633 1061 1029 1039 b 1082 656 1274 942 1186 822 b 382 104 901 376 632 63 b 219 214 322 111 257 160 l -1 -19 b 321 -196 38 -110 188 -185 b 1188 513 711 -229 950 117 b 1365 799 1260 633 1317 726 b 1294 1 1329 625 1294 375 l 1290 -7 l 1493 -79 b 2389 1090 1711 564 2019 1083 b 2610 978 2476 1090 2550 1057 l 2817 1169 b 2494 1346 2778 1260 2628 1335 b 1483 375 2058 1382 1718 831 b 1601 1026 1490 601 1528 828 b 1696 1043 1638 1029 1669 1035 z m 1931 1299 l 2121 1506 l 1963 1506 l 1843 1299 z "},"Ň":{"ha":1751,"x_min":0,"x_max":0,"o":"m 1697 1043 l 1646 1204 b 1533 1179 1608 1204 1572 1197 b 269 751 1169 1158 385 1274 b 689 300 213 496 417 265 l 797 619 b 554 818 657 589 507 675 b 1349 1026 633 1061 1029 1039 b 1082 656 1274 942 1186 822 b 382 104 901 376 632 63 b 219 214 322 111 257 160 l -1 -19 b 321 -196 38 -110 188 -185 b 1188 513 711 -229 950 117 b 1365 799 1260 633 1317 726 b 1294 1 1329 625 1294 375 l 1290 -7 l 1493 -79 b 2389 1090 1711 564 2019 1083 b 2610 978 2476 1090 2550 1057 l 2817 1169 b 2494 1346 2778 1260 2628 1335 b 1483 375 2058 1382 1718 831 b 1601 1026 1490 601 1528 828 b 1696 1043 1638 1029 1669 1035 z m 2083 1488 l 1960 1488 l 1868 1408 l 1821 1488 l 1690 1488 l 1810 1281 l 1879 1281 z "},"Ñ":{"ha":1751,"x_min":0,"x_max":0,"o":"m 1697 1043 l 1646 1204 b 1533 1179 1608 1204 1572 1197 b 269 751 1169 1158 385 1274 b 689 300 213 496 417 265 l 797 619 b 554 818 657 589 507 675 b 1349 1026 633 1061 1029 1039 b 1082 656 1274 942 1186 822 b 382 104 901 376 632 63 b 219 214 322 111 257 160 l -1 -19 b 321 -196 38 -110 188 -185 b 1188 513 711 -229 950 117 b 1365 799 1260 633 1317 726 b 1294 1 1329 625 1294 375 l 1290 -7 l 1493 -79 b 2389 1090 1711 564 2019 1083 b 2610 978 2476 1090 2550 1057 l 2817 1169 b 2494 1346 2778 1260 2628 1335 b 1483 375 2058 1382 1718 831 b 1601 1026 1490 601 1528 828 b 1696 1043 1638 1029 1669 1035 z m 2051 1517 b 1983 1432 2054 1465 2013 1433 b 1731 1561 1882 1426 1857 1565 b 1533 1338 1642 1558 1547 1485 l 1674 1338 b 1732 1440 1661 1378 1696 1438 b 1975 1317 1815 1447 1846 1319 b 2183 1511 2100 1314 2169 1439 z "},"O":{"ha":1251,"x_min":0,"x_max":0,"o":"m 35 779 b 229 554 75 683 143 607 b 449 -128 82 176 236 -69 b 1308 753 879 -244 1318 310 l 1224 744 b 1254 1201 1360 908 1383 1100 b 372 819 1079 1338 650 1231 l 346 781 b 293 910 310 817 290 861 b 469 1086 297 986 351 1071 l 282 1336 b 35 779 53 1286 -51 981 z m 801 492 b 1047 593 893 514 976 549 b 543 25 1050 336 760 -47 b 476 469 435 61 381 217 b 801 492 575 457 685 464 z m 761 683 b 578 679 697 672 635 671 b 1179 1072 804 1057 1115 1138 b 761 683 1236 1017 1189 753 z "},"Œ":{"ha":2024,"x_min":0,"x_max":0,"o":"m 449 -128 b 867 -33 615 -160 767 -108 b 1072 -140 917 -82 986 -121 b 1989 449 1404 -215 1813 19 l 1646 449 b 1269 13 1651 292 1490 32 b 1215 482 1049 -6 1007 292 b 1479 621 1311 569 1401 613 b 1649 560 1546 583 1613 564 l 1729 672 b 1549 729 1699 697 1576 728 b 1456 913 1510 754 1439 824 b 1721 951 1486 1076 1708 1061 b 1690 807 1726 897 1719 861 l 1797 760 b 1799 765 1797 761 1799 763 l 1800 765 b 2158 1078 1896 940 2026 1014 l 2018 1246 b 1835 1054 1963 1215 1894 1139 b 1669 1193 1807 1132 1742 1176 b 1368 1107 1574 1215 1451 1188 b 1254 1201 1342 1146 1304 1178 b 344 776 975 1332 578 1114 b 449 -128 101 426 67 -54 z m 1179 1072 b 1197 731 1253 1033 1307 901 b 915 549 1101 699 1004 639 b 778 115 783 414 740 250 b 525 26 696 33 594 4 b 526 592 401 67 379 331 b 1179 1072 794 1067 1083 1122 z "},"Ó":{"ha":1251,"x_min":0,"x_max":0,"o":"m 35 779 b 226 556 75 685 140 610 b 449 -128 61 176 232 -68 b 1303 824 903 -251 1367 372 l 1276 818 b 1254 1201 1364 963 1364 1115 b 365 796 1079 1338 656 1199 l 350 775 b 293 910 311 813 290 860 b 469 1086 297 986 351 1071 l 282 1336 b 35 779 53 1286 -51 981 z m 801 492 b 1072 608 904 517 996 557 b 525 26 1043 347 739 -22 b 465 471 414 53 354 211 b 801 492 568 457 681 463 z m 761 683 b 579 679 697 672 636 672 b 1179 1072 838 1074 1117 1136 b 761 683 1236 1017 1189 753 z m 1157 1331 l 1347 1538 l 1189 1538 l 1069 1331 z "},"Ô":{"ha":1251,"x_min":0,"x_max":0,"o":"m 35 779 b 226 556 75 685 140 610 b 449 -128 61 176 232 -68 b 1303 824 903 -251 1367 372 l 1276 818 b 1254 1201 1364 963 1364 1115 b 365 796 1079 1338 656 1199 l 350 775 b 293 910 311 813 290 860 b 469 1086 297 986 351 1071 l 282 1336 b 35 779 53 1286 -51 981 z m 801 492 b 1072 608 904 517 996 557 b 525 26 1043 347 739 -22 b 465 471 414 53 354 211 b 801 492 568 457 681 463 z m 761 683 b 579 679 697 672 636 672 b 1179 1072 838 1074 1117 1136 b 761 683 1236 1017 1189 753 z m 882 1314 l 1047 1314 l 1139 1393 l 1186 1314 l 1317 1314 l 1197 1521 l 1128 1521 z "},"Ö":{"ha":1251,"x_min":0,"x_max":0,"o":"m 35 779 b 226 556 75 685 140 610 b 449 -128 61 176 232 -68 b 1303 824 903 -251 1367 372 l 1276 818 b 1254 1201 1364 963 1364 1115 b 365 796 1079 1338 656 1199 l 350 775 b 293 910 311 813 290 860 b 469 1086 297 986 351 1071 l 282 1336 b 35 779 53 1286 -51 981 z m 801 492 b 1072 608 904 517 996 557 b 525 26 1043 347 739 -22 b 465 471 414 53 354 211 b 801 492 568 457 681 463 z m 761 683 b 579 679 697 672 636 672 b 1179 1072 838 1074 1117 1136 b 761 683 1236 1017 1189 753 z m 1415 1456 b 1342 1547 1426 1507 1396 1547 b 1231 1456 1290 1547 1242 1507 b 1303 1363 1219 1401 1251 1363 b 1415 1456 1357 1363 1404 1401 z m 1151 1456 b 1078 1547 1163 1507 1132 1547 b 967 1456 1026 1547 978 1507 b 1039 1363 956 1401 988 1363 b 1151 1456 1093 1363 1140 1401 z "},"Ò":{"ha":1251,"x_min":0,"x_max":0,"o":"m 35 779 b 226 556 75 685 140 610 b 449 -128 61 176 232 -68 b 1303 824 903 -251 1367 372 l 1276 818 b 1254 1201 1364 963 1364 1115 b 365 796 1079 1338 656 1199 l 350 775 b 293 910 311 813 290 860 b 469 1086 297 986 351 1071 l 282 1336 b 35 779 53 1286 -51 981 z m 801 492 b 1072 608 904 517 996 557 b 525 26 1043 347 739 -22 b 465 471 414 53 354 211 b 801 492 568 457 681 463 z m 761 683 b 579 679 697 672 636 672 b 1179 1072 838 1074 1117 1136 b 761 683 1236 1017 1189 753 z m 1174 1313 l 1054 1519 l 896 1519 l 1086 1313 z "},"Ő":{"ha":1251,"x_min":0,"x_max":0,"o":"m 35 779 b 226 556 75 685 140 610 b 449 -128 61 176 232 -68 b 1303 824 903 -251 1367 372 l 1276 818 b 1254 1201 1364 963 1364 1115 b 365 796 1079 1338 656 1199 l 350 775 b 293 910 311 813 290 860 b 469 1086 297 986 351 1071 l 282 1336 b 35 779 53 1286 -51 981 z m 801 492 b 1072 608 904 517 996 557 b 525 26 1043 347 739 -22 b 465 471 414 53 354 211 b 801 492 568 457 681 463 z m 761 683 b 579 679 697 672 636 672 b 1179 1072 838 1074 1117 1136 b 761 683 1236 1017 1189 753 z m 1025 1331 l 1215 1538 l 1057 1538 l 938 1331 z m 1238 1331 l 1428 1538 l 1269 1538 l 1150 1331 z "},"Ø":{"ha":1251,"x_min":0,"x_max":0,"o":"m 433 -61 l 457 -69 b 1193 553 786 -160 1122 201 b 1222 1006 1304 714 1313 899 l 1369 1204 l 1193 1204 l 1101 1082 b 386 751 913 1144 613 1071 b 310 26 168 446 190 169 l 160 -175 l 350 -175 z m 525 558 b 997 943 707 874 885 949 l 425 179 b 525 558 407 264 431 393 z m 989 689 b 526 64 1076 479 747 18 z m 1124 872 b 1132 749 1139 842 1144 799 l 1017 728 z "},"Õ":{"ha":1251,"x_min":0,"x_max":0,"o":"m 35 779 b 226 556 75 685 140 610 b 449 -128 61 176 232 -68 b 1303 824 903 -251 1367 372 l 1276 818 b 1254 1201 1364 963 1364 1115 b 365 796 1079 1338 656 1199 l 350 775 b 293 910 311 813 290 860 b 469 1086 297 986 351 1071 l 282 1336 b 35 779 53 1286 -51 981 z m 801 492 b 1072 608 904 517 996 557 b 525 26 1043 347 739 -22 b 465 471 414 53 354 211 b 801 492 568 457 681 463 z m 761 683 b 579 679 697 672 636 672 b 1179 1072 838 1074 1117 1136 b 761 683 1236 1017 1189 753 z m 1351 1515 b 1283 1431 1354 1464 1313 1432 b 1031 1560 1182 1425 1157 1564 b 833 1336 942 1557 847 1483 l 974 1336 b 1032 1439 961 1376 996 1436 b 1275 1315 1115 1446 1146 1318 b 1483 1510 1400 1313 1469 1438 z "},"P":{"ha":1657,"x_min":0,"x_max":0,"o":"m 1051 642 b 382 104 871 363 632 63 b 219 214 322 111 257 160 l -1 6 b 321 -171 38 -85 188 -160 b 1007 239 614 -196 819 -17 b 1750 765 1438 129 1783 442 b 1604 1051 1738 885 1683 979 b 1833 1156 1692 1126 1767 1157 l 1782 1324 b 1449 1151 1675 1315 1564 1257 b 1032 1225 1325 1207 1176 1231 b 289 682 675 1210 310 1015 b 717 321 274 438 468 256 l 776 629 b 656 615 732 614 690 610 b 549 824 557 633 524 731 b 1014 1079 592 979 801 1069 b 1331 1028 1121 1083 1235 1067 b 1051 642 1242 924 1149 794 z m 1556 724 b 1114 396 1546 596 1428 375 l 1188 513 b 1482 928 1300 693 1396 828 b 1556 724 1532 874 1561 806 z "},"Q":{"ha":1249,"x_min":0,"x_max":0,"o":"m 1607 -228 b 918 -12 1485 -151 1199 -92 b 1303 824 1168 176 1343 535 l 1276 818 b 1254 1201 1364 963 1364 1115 b 365 796 1079 1338 656 1199 l 350 775 b 293 910 311 813 290 860 b 469 1086 297 986 351 1071 l 282 1336 b 35 779 53 1286 -51 981 b 226 556 75 685 140 610 b 449 -128 61 176 232 -68 b 729 -115 543 -153 639 -146 b 1356 -383 963 -207 1199 -286 z m 801 492 b 1072 608 904 517 996 557 b 693 58 1050 411 871 153 b 407 193 586 94 488 140 b 465 471 401 265 417 358 b 801 492 568 457 681 463 z m 761 683 b 579 679 697 672 636 672 b 1179 1072 838 1074 1117 1136 b 761 683 1236 1017 1189 753 z "},"R":{"ha":1647,"x_min":0,"x_max":0,"o":"m 1051 642 b 382 104 871 363 632 63 b 219 214 322 111 257 160 l -1 6 b 321 -171 38 -85 188 -160 b 1075 338 651 -199 868 29 b 1128 321 1092 331 1110 326 b 1893 -417 1189 -71 1464 -417 b 2150 -342 1986 -417 2089 -394 l 2076 -106 b 1813 -150 2013 -158 1921 -161 b 1281 303 1694 -137 1374 -15 b 1790 776 1568 308 1807 543 b 1617 1061 1781 897 1714 992 b 1833 1156 1699 1129 1769 1157 l 1782 1324 b 1446 1147 1674 1315 1563 1256 b 1347 1176 1414 1158 1381 1168 b 301 746 1003 1257 413 1171 b 694 319 236 496 436 278 l 789 635 b 565 764 657 603 556 667 b 1079 1068 589 986 901 1068 b 1331 1026 1171 1068 1257 1054 b 1051 642 1240 924 1147 794 z m 1567 757 b 1167 479 1558 625 1379 449 l 1188 513 b 1488 933 1301 696 1401 833 b 1567 757 1540 883 1569 822 z "},"Ŕ":{"ha":1647,"x_min":0,"x_max":0,"o":"m 1051 642 b 382 104 871 363 632 63 b 219 214 322 111 257 160 l -1 6 b 321 -171 38 -85 188 -160 b 1075 338 651 -199 868 29 b 1128 321 1092 331 1110 326 b 1893 -417 1189 -71 1464 -417 b 2150 -342 1986 -417 2089 -394 l 2076 -106 b 1813 -150 2013 -158 1921 -161 b 1281 303 1694 -137 1374 -15 b 1790 776 1568 308 1807 543 b 1617 1061 1781 897 1714 992 b 1833 1156 1699 1129 1769 1157 l 1782 1324 b 1446 1147 1674 1315 1563 1256 b 1347 1176 1414 1158 1381 1168 b 301 746 1003 1257 413 1171 b 694 319 236 496 436 278 l 789 635 b 565 764 657 603 556 667 b 1079 1068 589 986 901 1068 b 1331 1026 1171 1068 1257 1054 b 1051 642 1240 924 1147 794 z m 1567 757 b 1167 479 1558 625 1379 449 l 1188 513 b 1488 933 1301 696 1401 833 b 1567 757 1540 883 1569 822 z m 1481 1282 l 1671 1489 l 1513 1489 l 1393 1282 z "},"Ř":{"ha":1647,"x_min":0,"x_max":0,"o":"m 1051 642 b 382 104 871 363 632 63 b 219 214 322 111 257 160 l -1 6 b 321 -171 38 -85 188 -160 b 1075 338 651 -199 868 29 b 1128 321 1092 331 1110 326 b 1893 -417 1189 -71 1464 -417 b 2150 -342 1986 -417 2089 -394 l 2076 -106 b 1813 -150 2013 -158 1921 -161 b 1281 303 1694 -137 1374 -15 b 1790 776 1568 308 1807 543 b 1617 1061 1781 897 1714 992 b 1833 1156 1699 1129 1769 1157 l 1782 1324 b 1446 1147 1674 1315 1563 1256 b 1347 1176 1414 1158 1381 1168 b 301 746 1003 1257 413 1171 b 694 319 236 496 436 278 l 789 635 b 565 764 657 603 556 667 b 1079 1068 589 986 901 1068 b 1331 1026 1171 1068 1257 1054 b 1051 642 1240 924 1147 794 z m 1567 757 b 1167 479 1558 625 1379 449 l 1188 513 b 1488 933 1301 696 1401 833 b 1567 757 1540 883 1569 822 z m 1732 1514 l 1608 1514 l 1517 1435 l 1469 1514 l 1339 1514 l 1458 1307 l 1528 1307 z "},"S":{"ha":1486,"x_min":0,"x_max":0,"o":"m -307 -43 b 19 -175 -264 -122 -83 -172 b 490 -69 178 -181 336 -139 b 1446 283 768 -285 1367 -178 b 1392 628 1464 394 1429 515 b 1833 1078 1582 822 1735 996 l 1718 1175 l 1619 1061 b 1379 1192 1593 1147 1497 1208 b 1138 961 1261 1175 1164 1086 b 1164 596 1111 840 1139 717 l 1131 571 b 596 242 943 431 763 318 b 794 493 601 338 664 439 l 606 758 b 346 150 328 590 290 335 b -110 239 146 99 -15 122 z m 1193 356 b 694 40 1182 53 854 -62 b 1190 431 871 149 1039 289 b 1193 356 1193 406 1193 381 z m 1494 1006 b 1435 850 1501 968 1489 917 b 1350 761 1406 818 1378 789 b 1338 949 1331 833 1321 897 b 1494 1006 1372 1060 1482 1067 z "},"Ś":{"ha":1486,"x_min":0,"x_max":0,"o":"m -307 -43 b 19 -175 -264 -122 -83 -172 b 490 -69 178 -181 336 -139 b 1446 283 768 -285 1367 -178 b 1392 628 1464 394 1429 515 b 1833 1078 1582 822 1735 996 l 1718 1175 l 1619 1061 b 1379 1192 1593 1147 1497 1208 b 1138 961 1261 1175 1164 1086 b 1164 596 1111 840 1139 717 l 1131 571 b 596 242 943 431 763 318 b 794 493 601 338 664 439 l 606 758 b 346 150 328 590 290 335 b -110 239 146 99 -15 122 z m 1193 356 b 694 40 1182 53 854 -62 b 1190 431 871 149 1039 289 b 1193 356 1193 406 1193 381 z m 1494 1006 b 1435 850 1501 968 1489 917 b 1350 761 1406 818 1378 789 b 1338 949 1331 833 1321 897 b 1494 1006 1372 1060 1482 1067 z m 1574 1247 l 1764 1454 l 1606 1454 l 1486 1247 z "},"Š":{"ha":1486,"x_min":0,"x_max":0,"o":"m -307 -43 b 19 -175 -264 -122 -83 -172 b 490 -69 178 -181 336 -139 b 1446 283 768 -285 1367 -178 b 1392 628 1464 394 1429 515 b 1833 1078 1582 822 1735 996 l 1718 1175 l 1619 1061 b 1379 1192 1593 1147 1497 1208 b 1138 961 1261 1175 1164 1086 b 1164 596 1111 840 1139 717 l 1131 571 b 596 242 943 431 763 318 b 794 493 601 338 664 439 l 606 758 b 346 150 328 590 290 335 b -110 239 146 99 -15 122 z m 1193 356 b 694 40 1182 53 854 -62 b 1190 431 871 149 1039 289 b 1193 356 1193 406 1193 381 z m 1771 1474 l 1647 1474 l 1556 1394 l 1508 1474 l 1378 1474 l 1497 1267 l 1567 1267 z m 1494 1006 b 1432 847 1501 968 1488 915 b 1350 761 1404 817 1378 789 b 1338 949 1331 833 1321 897 b 1494 1006 1372 1060 1482 1067 z "},"Ş":{"ha":1486,"x_min":0,"x_max":0,"o":"m 806 -175 b 1446 283 1082 -187 1390 -39 b 1392 628 1464 394 1429 515 b 1833 1078 1582 822 1735 996 l 1718 1175 l 1619 1061 b 1379 1192 1593 1147 1497 1208 b 1138 961 1261 1175 1164 1086 b 1164 596 1111 840 1139 717 l 1131 571 b 596 242 943 431 763 318 b 794 493 601 338 664 439 l 606 758 b 346 150 328 590 290 335 b -110 239 146 99 -15 122 l -307 -43 b 19 -175 -264 -122 -83 -172 b 490 -69 178 -181 336 -139 b 674 -156 543 -110 606 -139 l 610 -219 l 676 -308 b 768 -344 728 -304 768 -326 b 596 -342 768 -410 700 -403 l 492 -464 b 867 -419 626 -606 818 -533 b 768 -211 901 -337 868 -229 z m 1193 356 b 694 40 1182 53 854 -62 b 1190 431 871 149 1039 289 b 1193 356 1193 406 1193 381 z m 1494 1006 b 1432 847 1501 968 1488 915 b 1350 761 1404 817 1378 789 b 1338 949 1331 833 1321 897 b 1494 1006 1372 1060 1482 1067 z "},"T":{"ha":1111,"x_min":0,"x_max":0,"o":"m 1635 1278 b 865 1200 1457 1225 1126 1204 b 174 779 563 1194 250 1106 b 547 336 117 532 282 321 l 672 636 b 449 817 535 617 418 686 b 872 1065 489 981 661 1057 b 1129 1063 960 1068 1044 1065 b 935 639 1065 897 1001 758 b 186 256 692 207 433 -10 l -1 -24 b 328 -174 58 -107 165 -175 b 1303 1054 757 -171 1078 411 b 1767 1054 1446 1047 1594 1043 z "},"Ť":{"ha":1081,"x_min":0,"x_max":0,"o":"m 1635 1278 b 865 1200 1457 1225 1126 1204 b 174 779 563 1194 250 1106 b 547 336 117 532 282 321 l 672 636 b 449 817 535 617 418 686 b 872 1065 489 981 661 1057 b 1129 1063 960 1068 1044 1065 b 935 639 1065 897 1001 758 b 186 256 692 207 433 -10 l -1 -24 b 328 -174 58 -107 165 -175 b 1303 1054 757 -171 1078 411 b 1767 1054 1446 1047 1594 1043 z m 1522 1500 l 1399 1500 l 1307 1421 l 1260 1500 l 1129 1500 l 1249 1293 l 1318 1293 z "},"U":{"ha":1608,"x_min":0,"x_max":0,"o":"m 1376 1251 b 1375 1250 1376 1250 1375 1250 b 1200 1140 1318 1219 1260 1183 b 717 1146 1063 1122 871 1147 b 24 751 403 1142 97 1086 b 443 300 -33 496 171 265 l 551 619 b 308 818 411 589 264 674 b 1025 997 375 1036 713 1008 l 1029 997 b 697 542 903 875 786 722 b 754 6 532 204 624 26 b 1232 271 878 -14 992 11 b 1522 -450 1132 -40 1183 -340 l 1640 -178 b 1496 403 1364 -115 1408 190 b 1994 1083 1638 744 1863 990 l 1874 1204 b 1479 746 1790 1132 1631 971 l 1476 744 l 1464 724 l 1403 628 b 864 175 1217 351 957 108 b 1339 1006 732 268 1117 853 b 1485 1089 1401 1018 1453 1043 z "},"Ú":{"ha":1608,"x_min":0,"x_max":0,"o":"m 1376 1251 b 1375 1250 1376 1250 1375 1250 b 1200 1140 1318 1219 1260 1183 b 717 1146 1063 1122 871 1147 b 24 751 403 1142 97 1086 b 443 300 -33 496 171 265 l 551 619 b 308 818 411 589 264 674 b 1025 997 375 1036 713 1008 l 1029 997 b 697 542 903 875 786 722 b 754 6 532 204 624 26 b 1232 271 878 -14 992 11 b 1522 -450 1132 -40 1183 -340 l 1640 -178 b 1496 403 1364 -115 1408 190 b 1994 1083 1638 744 1863 990 l 1874 1204 b 1479 746 1790 1132 1631 971 l 1476 744 l 1464 724 l 1403 628 b 864 175 1217 351 957 108 b 1339 1006 732 268 1117 853 b 1485 1089 1401 1018 1453 1043 z m 1663 1271 l 1853 1478 l 1694 1478 l 1575 1271 z "},"Û":{"ha":1608,"x_min":0,"x_max":0,"o":"m 1376 1251 b 1375 1250 1376 1250 1375 1250 b 1200 1140 1318 1219 1260 1183 b 717 1146 1063 1122 871 1147 b 24 751 403 1142 97 1086 b 443 300 -33 496 171 265 l 551 619 b 308 818 411 589 264 674 b 1025 997 375 1036 713 1008 l 1029 997 b 697 542 903 875 786 722 b 754 6 532 204 624 26 b 1232 271 878 -14 992 11 b 1522 -450 1132 -40 1183 -340 l 1640 -178 b 1496 403 1364 -115 1408 190 b 1994 1083 1638 744 1863 990 l 1874 1204 b 1479 746 1790 1132 1631 971 l 1476 744 l 1464 724 l 1403 628 b 864 175 1217 351 957 108 b 1339 1006 732 268 1117 853 b 1485 1089 1401 1018 1453 1043 z m 1446 1324 l 1611 1324 l 1703 1403 l 1750 1324 l 1881 1324 l 1761 1531 l 1692 1531 z "},"Ü":{"ha":1608,"x_min":0,"x_max":0,"o":"m 1376 1251 b 1375 1250 1376 1250 1375 1250 b 1200 1140 1318 1219 1260 1183 b 717 1146 1063 1122 871 1147 b 24 751 403 1142 97 1086 b 443 300 -33 496 171 265 l 551 619 b 308 818 411 589 264 674 b 1025 997 375 1036 713 1008 l 1029 997 b 697 542 903 875 786 722 b 754 6 532 204 624 26 b 1232 271 878 -14 992 11 b 1522 -450 1132 -40 1183 -340 l 1640 -178 b 1496 403 1364 -115 1408 190 b 1994 1083 1638 744 1863 990 l 1874 1204 b 1479 746 1790 1132 1631 971 l 1476 744 l 1464 724 l 1403 628 b 864 175 1217 351 957 108 b 1339 1006 732 268 1117 853 b 1485 1089 1401 1018 1453 1043 z m 1940 1378 b 1867 1469 1951 1429 1921 1469 b 1756 1378 1815 1469 1767 1429 b 1828 1285 1744 1324 1776 1285 b 1940 1378 1882 1285 1929 1324 z m 1676 1378 b 1603 1469 1688 1429 1657 1469 b 1492 1378 1551 1469 1503 1429 b 1564 1285 1481 1324 1513 1285 b 1676 1378 1618 1285 1665 1324 z "},"Ù":{"ha":1608,"x_min":0,"x_max":0,"o":"m 1376 1251 b 1375 1250 1376 1250 1375 1250 b 1200 1140 1318 1219 1260 1183 b 717 1146 1063 1122 871 1147 b 24 751 403 1142 97 1086 b 443 300 -33 496 171 265 l 551 619 b 308 818 411 589 264 674 b 1025 997 375 1036 713 1008 l 1029 997 b 697 542 903 875 786 722 b 754 6 532 204 624 26 b 1232 271 878 -14 992 11 b 1522 -450 1132 -40 1183 -340 l 1640 -178 b 1496 403 1364 -115 1408 190 b 1994 1083 1638 744 1863 990 l 1874 1204 b 1479 746 1790 1132 1631 971 l 1476 744 l 1464 724 l 1403 628 b 864 175 1217 351 957 108 b 1339 1006 732 268 1117 853 b 1485 1089 1401 1018 1453 1043 z m 1692 1290 l 1572 1497 l 1414 1497 l 1604 1290 z "},"Ű":{"ha":1608,"x_min":0,"x_max":0,"o":"m 1376 1251 b 1375 1250 1376 1250 1375 1250 b 1200 1140 1318 1219 1260 1183 b 717 1146 1063 1122 871 1147 b 24 751 403 1142 97 1086 b 443 300 -33 496 171 265 l 551 619 b 308 818 411 589 264 674 b 1025 997 375 1036 713 1008 l 1029 997 b 697 542 903 875 786 722 b 754 6 532 204 624 26 b 1232 271 878 -14 992 11 b 1522 -450 1132 -40 1183 -340 l 1640 -178 b 1496 403 1364 -115 1408 190 b 1994 1083 1638 744 1863 990 l 1874 1204 b 1479 746 1790 1132 1631 971 l 1476 744 l 1464 724 l 1403 628 b 864 175 1217 351 957 108 b 1339 1006 732 268 1117 853 b 1485 1089 1401 1018 1453 1043 z m 1579 1285 l 1769 1492 l 1611 1492 l 1492 1285 z m 1792 1285 l 1982 1492 l 1824 1492 l 1704 1285 z "},"Ů":{"ha":1608,"x_min":0,"x_max":0,"o":"m 1376 1251 b 1375 1250 1376 1250 1375 1250 b 1200 1140 1318 1219 1260 1183 b 717 1146 1063 1122 871 1147 b 24 751 403 1142 97 1086 b 443 300 -33 496 171 265 l 551 619 b 308 818 411 589 264 674 b 1025 997 375 1036 713 1008 l 1029 997 b 697 542 903 875 786 722 b 754 6 532 204 624 26 b 1232 271 878 -14 992 11 b 1522 -450 1132 -40 1183 -340 l 1640 -178 b 1496 403 1364 -115 1408 190 b 1994 1083 1638 744 1863 990 l 1874 1204 b 1479 746 1790 1132 1631 971 l 1476 744 l 1464 724 l 1403 628 b 864 175 1217 351 957 108 b 1339 1006 732 268 1117 853 b 1485 1089 1401 1018 1453 1043 z m 1613 1261 b 1765 1350 1683 1250 1749 1286 b 1653 1499 1786 1426 1726 1496 b 1515 1392 1592 1503 1528 1458 b 1613 1261 1506 1329 1546 1271 z m 1682 1408 b 1672 1343 1700 1390 1694 1356 b 1599 1347 1649 1331 1617 1332 b 1608 1415 1578 1367 1583 1403 b 1682 1408 1632 1428 1664 1425 z "},"V":{"ha":1267,"x_min":0,"x_max":0,"o":"m 1018 -131 b 1954 1132 1211 482 1585 1125 b 2175 1019 2042 1132 2115 1099 l 2382 1211 b 2060 1388 2343 1301 2193 1376 b 1085 475 1658 1421 1324 944 b 1038 933 1097 636 1092 803 b 513 1186 972 1088 792 1222 b 32 435 196 1146 -114 831 b 631 240 126 185 422 121 l 551 567 b 389 518 504 533 444 515 b 542 1046 108 531 174 1014 b 794 -71 1072 1092 914 321 z "},"W":{"ha":1610,"x_min":0,"x_max":0,"o":"m 1351 -149 b 2288 1153 1544 464 1918 1146 b 2508 1040 2375 1153 2449 1119 l 2715 1232 b 2393 1408 2676 1322 2526 1397 b 1415 449 1978 1443 1649 932 b 1606 1108 1415 654 1438 882 l 1338 1106 b 1271 875 1303 1032 1282 954 b 1068 535 1207 764 1153 665 b 589 1275 1158 846 1082 1268 b 35 575 271 1279 -69 985 b 611 322 103 318 392 224 l 565 656 b 253 808 433 581 261 631 b 626 1129 246 963 393 1150 b 900 569 894 1106 979 860 b 578 -76 839 346 653 31 l 797 -157 b 1258 594 833 -42 1082 321 b 1149 -83 1261 390 1232 163 z "},"X":{"ha":1675,"x_min":0,"x_max":0,"o":"m 1567 686 b 2165 1067 1704 965 1933 1079 b 2422 903 2271 1061 2396 999 l 2693 1078 b 2392 1288 2664 1172 2522 1263 b 1463 831 2043 1354 1661 1163 b 1083 1231 1432 1008 1318 1164 b 365 700 775 1318 371 1124 b 854 306 363 433 617 267 l 897 639 b 728 650 840 625 778 628 b 1079 1081 471 764 726 1200 b 1182 339 1378 979 1361 567 b 461 114 968 65 669 63 b 276 281 376 138 314 189 l 26 149 b 293 -106 40 51 165 -60 b 1279 213 621 -224 1000 -131 b 1663 -475 1265 -94 1372 -378 l 1756 -208 b 1567 686 1481 -89 1396 339 z "},"Y":{"ha":1558,"x_min":0,"x_max":0,"o":"m 1335 1251 b 1333 1249 1333 1250 1333 1250 b 1146 1126 1272 1217 1208 1175 b 717 1132 1025 1107 869 1133 b 24 751 403 1128 97 1086 b 443 300 -33 496 171 265 l 551 619 b 308 818 411 589 264 674 b 1003 997 374 1031 697 1010 b 696 556 879 872 768 718 b 754 6 543 213 624 26 b 1213 250 874 -12 985 10 b 694 -225 1079 -1 907 -232 b 519 -139 635 -226 564 -187 l 328 -375 b 671 -506 379 -458 538 -512 b 1439 286 1063 -487 1249 -135 b 1993 1010 1672 806 1843 993 l 1919 1169 b 1388 604 1735 1131 1563 935 b 864 175 1201 338 954 111 b 1346 1010 731 269 1125 867 b 1461 1088 1394 1024 1432 1047 z "},"Ý":{"ha":1558,"x_min":0,"x_max":0,"o":"m 1335 1251 b 1333 1249 1333 1250 1333 1250 b 1146 1126 1272 1217 1208 1175 b 717 1132 1025 1107 869 1133 b 24 751 403 1128 97 1086 b 443 300 -33 496 171 265 l 551 619 b 308 818 411 589 264 674 b 1003 997 374 1031 697 1010 b 696 556 879 872 768 718 b 754 6 543 213 624 26 b 1213 250 874 -12 985 10 b 694 -225 1079 -1 907 -232 b 519 -139 635 -226 564 -187 l 328 -375 b 671 -506 379 -458 538 -512 b 1439 286 1063 -487 1249 -135 b 1993 1010 1672 806 1843 993 l 1919 1169 b 1388 604 1735 1131 1563 935 b 864 175 1201 338 954 111 b 1346 1010 731 269 1125 867 b 1461 1088 1394 1024 1432 1047 z m 1688 1211 l 1878 1418 l 1719 1418 l 1600 1211 z "},"Z":{"ha":1393,"x_min":0,"x_max":0,"o":"m 1892 1213 b 1711 1190 1828 1224 1763 1213 b 353 922 1329 1235 528 1392 b 711 419 265 678 438 422 l 861 724 b 646 951 718 711 581 818 b 1544 1063 750 1171 1238 1115 b 335 24 1331 829 821 210 b 15 -28 199 7 106 -12 b 174 -229 19 -118 68 -236 b 571 -103 308 -218 442 -172 b 1369 -410 876 -93 1215 -149 l 1669 -297 b 818 58 1547 -17 1189 58 b 1763 1029 1264 401 1624 938 b 1885 1029 1829 1022 1840 1021 z "},"Ź":{"ha":1354,"x_min":0,"x_max":0,"o":"m 1794 1099 l 1769 1204 b 1604 1163 1707 1199 1654 1186 b 379 865 1219 1197 539 1339 b 749 372 296 618 475 367 l 890 679 b 669 901 749 663 608 765 b 1439 1031 769 1124 1132 1075 b 1163 642 1361 944 1275 821 b 475 28 1001 393 713 67 b 219 158 361 82 261 131 l 96 21 b 375 -174 111 -67 242 -162 b 493 -172 415 -176 454 -176 b 932 -379 664 -256 846 -340 b 1707 -324 1226 -501 1536 -517 l 1476 -142 b 965 -182 1365 -274 1136 -242 b 743 -92 918 -165 836 -132 b 1299 513 958 25 1138 256 b 1658 1003 1486 814 1579 946 b 1829 1006 1726 997 1785 996 z m 1608 1289 l 1799 1496 l 1640 1496 l 1521 1289 z "},"Ž":{"ha":1354,"x_min":0,"x_max":0,"o":"m 1794 1099 l 1769 1204 b 1604 1163 1707 1199 1654 1186 b 379 865 1219 1197 539 1339 b 749 372 296 618 475 367 l 890 679 b 669 901 749 663 608 765 b 1439 1031 769 1124 1132 1075 b 1163 642 1361 944 1275 821 b 475 28 1001 393 713 67 b 219 158 361 82 261 131 l 96 21 b 375 -174 111 -67 242 -162 b 493 -172 415 -176 454 -176 b 932 -379 664 -256 846 -340 b 1707 -324 1226 -501 1536 -517 l 1476 -142 b 965 -182 1365 -274 1136 -242 b 743 -92 918 -165 836 -132 b 1299 513 958 25 1138 256 b 1658 1003 1486 814 1579 946 b 1829 1006 1726 997 1785 996 z m 1793 1501 l 1669 1501 l 1578 1422 l 1531 1501 l 1400 1501 l 1519 1294 l 1589 1294 z "},"Ż":{"ha":1354,"x_min":0,"x_max":0,"o":"m 1794 1099 l 1769 1204 b 1604 1163 1707 1199 1654 1186 b 379 865 1219 1197 539 1339 b 749 372 296 618 475 367 l 890 679 b 669 901 749 663 608 765 b 1439 1031 769 1124 1132 1075 b 1163 642 1361 944 1275 821 b 475 28 1001 393 713 67 b 219 158 361 82 261 131 l 96 21 b 375 -174 111 -67 242 -162 b 493 -172 415 -176 454 -176 b 932 -379 664 -256 846 -340 b 1707 -324 1226 -501 1536 -517 l 1476 -142 b 965 -182 1365 -274 1136 -242 b 743 -92 918 -165 836 -132 b 1299 513 958 25 1138 256 b 1658 1003 1486 814 1579 946 b 1829 1006 1726 997 1785 996 z m 1597 1308 b 1649 1401 1629 1335 1646 1369 b 1413 1464 1665 1529 1503 1542 b 1396 1289 1351 1410 1346 1332 b 1597 1308 1447 1247 1539 1257 z "},"a":{"ha":744,"x_min":0,"x_max":0,"o":"m 550 639 l 517 556 b 397 624 486 601 450 622 b 56 353 240 628 113 481 b 182 0 -25 165 17 -6 b 385 110 265 3 353 67 b 504 1 386 53 436 1 b 917 353 622 1 768 104 l 824 367 b 617 175 760 278 664 172 b 622 286 588 176 594 221 b 786 639 635 315 763 590 z m 365 235 b 254 251 311 190 257 197 b 365 474 250 319 310 431 b 472 454 417 517 472 508 b 365 235 472 399 418 279 z "},"á":{"ha":744,"x_min":0,"x_max":0,"o":"m 550 639 l 517 556 b 397 624 486 601 450 622 b 56 353 240 628 113 481 b 182 0 -25 165 17 -6 b 385 110 265 3 353 67 b 504 1 386 53 436 1 b 917 353 622 1 768 104 l 824 367 b 617 175 760 278 664 172 b 622 286 588 176 594 221 b 786 639 635 315 763 590 z m 365 235 b 254 251 311 190 257 197 b 365 474 250 319 310 431 b 472 454 417 517 472 508 b 365 235 472 399 418 279 z m 599 742 l 789 949 l 631 949 l 511 742 z "},"ă":{"ha":744,"x_min":0,"x_max":0,"o":"m 686 921 b 546 824 679 851 594 821 b 465 922 501 826 438 861 l 360 922 b 522 718 321 806 418 721 b 792 915 642 715 761 794 z m 550 639 l 517 556 b 397 624 486 601 450 622 b 56 353 240 628 113 481 b 182 0 -25 165 17 -6 b 385 110 265 3 353 67 b 504 1 386 53 436 1 b 917 353 622 1 768 104 l 824 367 b 617 175 760 278 664 172 b 622 286 588 176 594 221 b 786 639 635 315 763 590 z m 365 235 b 254 251 311 190 257 197 b 365 474 250 319 310 431 b 472 454 417 517 472 508 b 365 235 472 399 418 279 z "},"â":{"ha":744,"x_min":0,"x_max":0,"o":"m 550 639 l 517 556 b 397 624 486 601 450 622 b 56 353 240 628 113 481 b 182 0 -25 165 17 -6 b 385 110 265 3 353 67 b 504 1 386 53 436 1 b 917 353 622 1 768 104 l 824 367 b 617 175 760 278 664 172 b 622 286 588 176 594 221 b 786 639 635 315 763 590 z m 365 235 b 254 251 311 190 257 197 b 365 474 250 319 310 431 b 472 454 417 517 472 508 b 365 235 472 399 418 279 z m 376 735 l 542 735 l 633 814 l 681 735 l 811 735 l 692 942 l 622 942 z "},"´":{"ha":1157,"x_min":0,"x_max":0,"o":"m 321 742 l 511 949 l 353 949 l 233 742 z "},"ä":{"ha":744,"x_min":0,"x_max":0,"o":"m 550 639 l 517 556 b 397 624 486 601 450 622 b 56 353 240 628 113 481 b 182 0 -25 165 17 -6 b 385 110 265 3 353 67 b 504 1 386 53 436 1 b 917 353 622 1 768 104 l 824 367 b 617 175 760 278 664 172 b 622 286 588 176 594 221 b 786 639 635 315 763 590 z m 365 235 b 254 251 311 190 257 197 b 365 474 250 319 310 431 b 472 454 417 517 472 508 b 365 235 472 399 418 279 z m 794 821 b 721 913 806 872 775 913 b 610 821 669 913 621 872 b 682 728 599 767 631 728 b 794 821 736 728 783 767 z m 531 821 b 457 913 542 872 511 913 b 346 821 406 913 357 872 b 418 728 335 767 367 728 b 531 821 472 728 519 767 z "},"æ":{"ha":994,"x_min":0,"x_max":0,"o":"m 550 639 l 517 556 b 397 624 486 601 450 622 b 56 353 240 628 113 481 b 182 0 -25 165 17 -3 b 450 132 247 0 342 40 b 739 3 490 46 585 -12 b 1167 356 928 21 1068 171 l 1064 356 b 994 268 1042 322 1018 293 b 725 165 900 174 793 146 b 686 185 710 169 697 176 b 1015 488 824 232 1025 338 b 818 639 1008 592 918 635 b 785 638 807 639 796 639 l 786 639 z m 365 235 b 254 251 311 190 257 197 b 365 474 250 319 310 431 b 472 454 417 517 472 508 b 365 235 472 399 418 279 z m 868 507 b 651 293 910 471 786 356 b 669 368 653 321 660 347 b 868 507 714 468 831 539 z "},"à":{"ha":744,"x_min":0,"x_max":0,"o":"m 550 639 l 517 556 b 397 624 486 601 450 622 b 56 353 240 628 113 481 b 182 0 -25 165 17 -6 b 385 110 265 3 353 67 b 504 1 386 53 436 1 b 917 353 622 1 768 104 l 824 367 b 617 175 760 278 664 172 b 622 286 588 176 594 221 b 786 639 635 315 763 590 z m 365 235 b 254 251 311 190 257 197 b 365 474 250 319 310 431 b 472 454 417 517 472 508 b 365 235 472 399 418 279 z m 511 742 l 392 949 l 233 949 l 424 742 z "},"&":{"ha":856,"x_min":0,"x_max":0,"o":"m 643 321 b 788 331 678 324 729 328 l 760 294 b 639 183 718 260 676 224 b 446 110 582 143 515 111 b 346 378 296 96 251 253 b 718 529 408 461 557 542 l 793 639 b 671 853 690 642 619 742 b 857 951 711 940 810 985 b 781 731 925 904 846 782 l 981 615 b 1026 1035 1049 703 1147 904 b 826 1125 981 1085 914 1121 b 483 636 572 1138 347 869 b 63 390 343 624 161 563 b 267 -96 -44 204 28 -68 b 444 -85 331 -103 390 -99 b 381 -487 381 -211 351 -349 l 733 -385 b 979 339 663 -165 803 244 b 1110 340 1028 340 1072 342 l 1179 504 l 696 504 z "},"ą":{"ha":744,"x_min":0,"x_max":0,"o":"m 594 -87 b 458 -93 557 -100 465 -135 b 533 4 457 -76 488 -35 b 917 353 646 19 781 124 l 824 367 b 617 175 760 278 664 172 b 622 286 588 176 594 221 b 786 639 635 315 763 590 l 550 639 l 517 556 b 397 624 486 601 450 622 b 56 353 240 628 113 481 b 182 0 -25 165 17 -6 b 385 110 265 3 353 67 b 417 36 385 82 397 56 b 333 -140 367 -17 328 -79 b 582 -228 339 -243 485 -271 z m 365 235 b 254 251 311 190 257 197 b 365 474 250 319 310 431 b 472 454 417 517 472 508 b 365 235 472 399 418 279 z "},"å":{"ha":744,"x_min":0,"x_max":0,"o":"m 550 639 l 517 556 b 397 624 486 601 450 622 b 56 353 240 628 113 481 b 182 0 -25 165 17 -6 b 385 110 265 3 353 67 b 504 1 386 53 436 1 b 917 353 622 1 768 104 l 824 367 b 617 175 760 278 664 172 b 622 286 588 176 594 221 b 786 639 635 315 763 590 z m 365 235 b 254 251 311 190 257 197 b 365 474 250 319 310 431 b 472 454 417 517 472 508 b 365 235 472 399 418 279 z m 539 710 b 692 799 610 699 675 735 b 579 947 713 875 653 944 b 442 840 518 951 454 907 b 539 710 432 778 472 719 z m 608 857 b 599 792 626 839 621 804 b 525 796 575 779 543 781 b 535 864 504 815 510 851 b 608 857 558 876 590 874 z "},"^":{"ha":906,"x_min":0,"x_max":0,"o":"m 706 964 b 663 985 696 981 678 986 b 608 964 646 988 626 982 l 99 488 l 375 488 l 628 742 l 768 486 l 974 486 z "},"~":{"ha":883,"x_min":0,"x_max":0,"o":"m 697 511 b 597 399 700 451 635 400 b 275 564 463 394 442 568 b 17 303 158 560 47 474 l 201 303 b 272 421 185 350 224 413 b 596 278 374 438 414 279 b 869 506 761 276 842 432 z "},"*":{"ha":613,"x_min":0,"x_max":0,"o":"m 739 871 b 657 911 718 881 675 901 b 749 940 683 924 729 933 l 708 1043 b 619 990 685 1028 643 1003 b 642 1074 629 1017 632 1051 l 525 1076 b 511 992 522 1047 517 1018 b 421 1044 493 1003 439 1032 l 350 951 l 438 908 b 347 872 419 900 364 878 l 389 772 l 475 815 b 451 736 467 794 461 757 l 574 724 b 583 818 575 750 579 794 l 665 765 z "},"@":{"ha":1503,"x_min":0,"x_max":0,"o":"m 944 638 l 911 554 b 792 622 881 600 844 621 b 450 351 635 626 507 479 b 576 -1 369 164 411 -7 b 779 108 660 1 747 65 b 919 0 781 51 851 6 b 1536 592 1181 -22 1507 261 b 1032 1068 1568 950 1290 1064 b 126 501 717 1072 325 878 b 433 -387 -69 103 67 -303 b 850 -337 589 -424 761 -390 l 813 -67 b 582 -146 743 -124 658 -143 b 285 426 282 -156 111 49 b 1000 904 451 793 810 904 b 1382 594 1254 904 1385 756 b 1011 174 1378 339 1114 118 b 1017 285 993 183 989 219 b 1181 638 1029 314 1157 589 z m 760 233 b 649 250 706 189 651 196 b 760 472 644 318 704 429 b 867 453 811 515 867 507 b 760 233 867 397 813 278 z "},"ã":{"ha":744,"x_min":0,"x_max":0,"o":"m 550 639 l 517 556 b 397 624 486 601 450 622 b 56 353 240 628 113 481 b 182 0 -25 165 17 -6 b 385 110 265 3 353 67 b 504 1 386 53 436 1 b 917 353 622 1 768 104 l 824 367 b 617 175 760 278 664 172 b 622 286 588 176 594 221 b 786 639 635 315 763 590 z m 365 235 b 254 251 311 190 257 197 b 365 474 250 319 310 431 b 472 454 417 517 472 508 b 365 235 472 399 418 279 z m 728 904 b 663 822 731 853 692 824 b 407 949 561 819 533 953 b 210 725 318 946 233 872 l 350 725 b 404 826 338 765 368 819 b 651 704 482 840 513 706 b 860 899 776 703 839 836 z "},"b":{"ha":689,"x_min":0,"x_max":0,"o":"m 542 638 b 364 575 481 644 429 626 l 551 983 l 304 983 b -79 0 306 979 44 317 l 104 0 b 129 61 111 19 119 39 b 272 -1 160 24 213 3 b 690 339 485 -14 647 139 b 542 638 719 476 685 621 z m 482 307 b 219 219 429 199 288 133 b 296 388 244 281 269 336 b 444 497 346 483 403 499 b 482 307 524 493 525 393 z "},"\\":{"ha":739,"x_min":0,"x_max":0,"o":"m 515 40 b 689 4 544 -36 647 -25 l 414 1039 b 247 864 379 1032 235 942 z "},"|":{"ha":679,"x_min":0,"x_max":0,"o":"m 439 1292 l 244 1292 l 244 -347 l 439 -347 z "},"{":{"ha":558,"x_min":0,"x_max":0,"o":"m 532 -360 b 335 226 290 -367 226 -176 b 325 451 354 294 361 422 b 486 649 374 481 463 592 b 1043 1113 669 1054 828 1156 l 1057 1161 b 232 636 782 1235 503 1213 b 74 453 206 579 139 475 b 96 254 114 431 114 318 b 526 -412 -6 -179 158 -424 z "},"}":{"ha":664,"x_min":0,"x_max":0,"o":"m 99 1100 b 346 551 339 1122 422 961 b 374 328 332 483 335 354 b 228 121 328 296 247 179 b -296 -401 76 -296 -78 -431 l -304 -451 b 475 125 -26 -507 249 -468 b 617 317 496 183 556 292 b 581 514 576 338 567 449 b 99 1153 649 953 465 1186 z "},"[":{"ha":544,"x_min":0,"x_max":0,"o":"m 465 692 b 724 964 531 931 629 960 l 843 964 l 928 1129 b 263 692 579 1174 351 1032 l 117 96 b 539 -361 39 -221 211 -385 l 607 -192 l 403 -192 b 310 121 307 -187 236 -150 z "},"]":{"ha":663,"x_min":0,"x_max":0,"o":"m 196 97 b -62 -175 131 -142 32 -171 l -182 -175 l -267 -340 b 399 97 82 -385 310 -243 l 544 693 b 122 1150 622 1010 450 1174 l 54 981 l 258 981 b 351 668 354 976 425 939 z "},"˘":{"ha":610,"x_min":0,"x_max":0,"o":"m 436 921 b 296 824 429 851 344 821 b 215 922 251 826 188 861 l 110 922 b 272 718 71 806 168 721 b 542 915 392 715 511 794 z "},"c":{"ha":606,"x_min":0,"x_max":0,"o":"m 571 363 b 747 640 544 467 692 604 l 638 765 b 525 646 592 735 554 692 b 456 654 506 651 483 654 b 17 285 269 651 47 508 b 272 0 -8 104 113 6 b 774 347 481 -7 651 133 l 683 367 b 356 186 581 201 403 179 b 467 500 142 215 294 507 b 471 360 456 447 457 399 z "},"ć":{"ha":606,"x_min":0,"x_max":0,"o":"m 571 376 b 747 654 544 481 692 618 l 638 779 b 518 649 588 746 547 699 b 456 654 500 653 479 654 b 17 285 269 651 47 508 b 272 0 -8 104 113 6 b 774 347 481 -7 651 133 l 683 367 b 356 186 581 201 403 179 b 464 500 142 215 292 504 b 471 374 456 453 458 408 z m 476 751 l 667 958 l 508 958 l 389 751 z "},"ˇ":{"ha":683,"x_min":0,"x_max":0,"o":"m 600 949 l 476 949 l 385 869 l 338 949 l 207 949 l 326 742 l 396 742 z "},"č":{"ha":606,"x_min":0,"x_max":0,"o":"m 571 376 b 747 654 544 481 692 618 l 638 779 b 518 649 588 746 547 699 b 456 654 500 653 479 654 b 17 285 269 651 47 508 b 272 0 -8 104 113 6 b 774 347 481 -7 651 133 l 683 367 b 356 186 581 201 403 179 b 464 500 142 215 292 504 b 471 374 456 453 458 408 z m 671 958 l 547 958 l 456 879 l 408 958 l 278 958 l 397 751 l 467 751 z "},"ç":{"ha":606,"x_min":0,"x_max":0,"o":"m 571 376 b 747 654 544 481 692 618 l 638 779 b 518 649 588 746 547 699 b 456 654 500 653 479 654 b 17 285 269 651 47 508 b 243 1 -7 115 97 18 l 151 -87 l 218 -176 b 310 -212 269 -172 310 -194 b 138 -210 310 -278 242 -271 l 33 -332 b 408 -287 168 -474 360 -401 b 310 -79 443 -206 410 -97 l 417 19 b 774 347 560 65 681 185 l 683 367 b 356 186 581 201 403 179 b 464 500 142 215 292 504 b 471 374 456 453 458 408 z "},"¸":{"ha":511,"x_min":0,"x_max":0,"o":"m 379 81 l 221 81 l 49 -87 l 115 -176 b 207 -212 167 -172 207 -194 b 35 -210 207 -278 139 -271 l -69 -332 b 306 -287 65 -474 257 -401 b 207 -79 340 -206 307 -97 z "},"¢":{"ha":917,"x_min":0,"x_max":0,"o":"m 436 146 b 847 406 613 138 775 256 l 754 465 b 554 310 711 374 633 318 b 515 310 540 308 528 308 l 700 692 b 756 647 722 681 740 665 l 861 699 b 757 808 840 743 801 783 l 838 975 l 671 975 l 607 843 b 179 513 440 846 240 761 b 292 189 146 376 196 251 l 200 0 l 365 0 z m 357 514 b 544 713 383 631 463 694 l 385 382 b 357 514 358 417 346 463 z "},"ˆ":{"ha":639,"x_min":0,"x_max":0,"o":"m 111 735 l 276 735 l 368 814 l 415 735 l 546 735 l 426 942 l 357 942 z "},":":{"ha":522,"x_min":0,"x_max":0,"o":"m 393 151 b 293 276 408 222 367 276 b 142 151 224 276 157 222 b 240 25 125 78 171 25 b 393 151 314 25 376 78 z m 521 626 b 421 751 536 697 494 751 b 269 626 351 751 285 697 b 368 500 256 553 299 500 b 521 626 442 500 507 553 z "},",":{"ha":410,"x_min":0,"x_max":0,"o":"m 308 93 b 235 185 315 144 289 185 b 124 93 183 185 135 144 b 188 0 113 43 139 4 b 111 -81 176 -21 156 -54 b 308 93 265 -58 304 54 z "},"©":{"ha":1006,"x_min":0,"x_max":0,"o":"m 639 592 b 481 147 403 597 179 147 b 722 296 563 147 674 218 l 636 354 b 461 222 626 283 508 193 b 600 519 385 269 525 496 b 579 432 639 531 624 465 l 683 421 b 639 592 750 493 721 592 z m 350 -49 b 1003 431 721 -111 972 185 b 706 814 1039 717 828 807 b 138 476 486 826 261 710 b 350 -49 15 226 101 -7 z m 683 726 b 856 360 907 719 922 535 b 379 42 776 144 564 13 b 261 435 232 64 165 239 b 683 726 372 661 564 731 z "},"d":{"ha":746,"x_min":0,"x_max":0,"o":"m 699 983 l 517 556 b 397 624 486 601 450 622 b 56 353 240 628 113 481 b 182 0 -25 165 17 0 b 368 82 242 0 308 26 l 369 83 b 493 3 383 32 425 3 b 917 353 611 3 768 104 l 824 367 b 617 175 760 278 664 172 b 622 286 588 176 594 221 b 958 981 635 315 935 932 z m 365 235 b 254 251 311 190 257 197 b 365 474 250 319 310 431 b 472 454 417 517 472 508 b 365 235 472 399 418 279 z "},"đ":{"ha":746,"x_min":0,"x_max":0,"o":"m 565 671 l 517 556 b 397 624 486 601 450 622 b 56 353 240 628 113 481 b 182 0 -25 165 17 0 b 368 82 242 0 308 26 l 369 83 b 493 3 383 32 425 3 b 917 353 611 3 768 104 l 824 367 b 617 175 760 278 664 172 b 622 286 588 176 594 221 l 807 671 l 900 671 l 961 824 l 882 824 b 958 981 918 900 951 967 l 699 983 l 631 824 l 529 824 l 475 671 z m 365 235 b 254 251 311 190 257 197 b 365 474 250 319 310 431 b 472 454 417 517 472 508 b 365 235 472 399 418 279 z "},"°":{"ha":603,"x_min":0,"x_max":0,"o":"m 567 761 b 618 854 599 788 615 822 b 382 917 635 982 472 994 b 365 742 321 863 315 785 b 567 761 417 700 508 710 z m 544 886 b 539 811 579 865 575 835 b 406 804 501 789 442 786 b 413 878 371 825 375 857 b 544 886 450 901 508 904 z "},"¨":{"ha":907,"x_min":0,"x_max":0,"o":"m 926 1147 b 853 1239 938 1199 907 1239 b 742 1147 801 1239 753 1199 b 814 1054 731 1093 763 1054 b 926 1147 868 1054 915 1093 z m 663 1147 b 589 1239 674 1199 643 1239 b 478 1147 538 1239 489 1199 b 550 1054 467 1093 499 1054 b 663 1147 604 1054 651 1093 z "},"÷":{"ha":544,"x_min":0,"x_max":0,"o":"m 407 201 b 326 301 418 256 385 301 b 207 201 272 301 221 256 b 285 101 192 143 231 101 b 407 201 343 101 392 143 z m 540 690 b 460 790 550 747 518 790 b 340 690 404 790 351 747 b 418 590 329 632 363 590 b 540 690 475 590 526 632 z m 590 389 l 644 507 l 174 507 l 118 389 z "},"$":{"ha":785,"x_min":0,"x_max":0,"o":"m 304 586 b 144 407 206 544 167 475 b 226 124 111 297 147 189 l 147 -42 l 310 -42 l 360 65 b 379 64 365 65 372 64 b 713 353 543 50 714 176 b 504 728 713 542 492 629 b 618 675 515 817 676 810 l 744 629 b 711 843 785 728 760 799 l 785 1003 l 636 1003 l 588 896 b 369 757 514 900 394 879 b 543 381 335 588 528 515 b 361 194 558 257 460 168 b 403 422 253 224 271 411 z "},"é":{"ha":599,"x_min":0,"x_max":0,"o":"m 329 165 b 271 208 301 172 283 189 b 619 488 408 238 600 328 b 428 649 633 601 528 654 b 38 300 254 640 75 493 b 343 3 6 136 101 -21 b 771 356 532 21 672 171 l 668 356 b 329 165 563 192 414 142 z m 449 739 l 639 946 l 481 946 l 361 739 z m 472 507 b 257 314 513 472 390 358 b 274 368 261 335 267 353 b 472 507 318 468 435 539 z "},"ě":{"ha":599,"x_min":0,"x_max":0,"o":"m 329 165 b 271 208 301 172 283 189 b 619 488 408 238 600 328 b 428 649 633 601 528 654 b 38 300 254 640 75 493 b 343 3 6 136 101 -21 b 771 356 532 21 672 171 l 668 356 b 329 165 563 192 414 142 z m 678 949 l 554 949 l 463 869 l 415 949 l 285 949 l 404 742 l 474 742 z m 472 507 b 257 314 513 472 390 358 b 274 368 261 335 267 353 b 472 507 318 468 435 539 z "},"ê":{"ha":599,"x_min":0,"x_max":0,"o":"m 329 165 b 271 208 301 172 283 189 b 619 488 408 238 600 328 b 428 649 633 601 528 654 b 38 300 254 640 75 493 b 343 3 6 136 101 -21 b 771 356 532 21 672 171 l 668 356 b 329 165 563 192 414 142 z m 193 735 l 358 735 l 450 814 l 497 735 l 628 735 l 508 942 l 439 942 z m 472 507 b 257 314 513 472 390 358 b 274 368 261 335 267 353 b 472 507 318 468 435 539 z "},"ë":{"ha":599,"x_min":0,"x_max":0,"o":"m 329 165 b 271 208 301 172 283 189 b 619 488 408 238 600 328 b 428 649 633 601 528 654 b 38 300 254 640 75 493 b 343 3 6 136 101 -21 b 771 356 532 21 672 171 l 668 356 b 329 165 563 192 414 142 z m 418 817 b 344 908 429 868 399 908 b 233 817 293 908 244 868 b 306 724 222 763 254 724 b 418 817 360 724 407 763 z m 682 817 b 608 908 693 868 663 908 b 497 817 557 908 508 868 b 569 724 486 763 518 724 b 682 817 624 724 671 763 z m 472 507 b 257 314 513 472 390 358 b 274 368 261 335 267 353 b 472 507 318 468 435 539 z "},"è":{"ha":599,"x_min":0,"x_max":0,"o":"m 329 165 b 271 208 301 172 283 189 b 619 488 408 238 600 328 b 428 649 633 601 528 654 b 38 300 254 640 75 493 b 343 3 6 136 101 -21 b 771 356 532 21 672 171 l 668 356 b 329 165 563 192 414 142 z m 438 742 l 318 949 l 160 949 l 350 742 z m 472 507 b 257 314 513 472 390 358 b 274 368 261 335 267 353 b 472 507 318 468 435 539 z "},"ę":{"ha":599,"x_min":0,"x_max":0,"o":"m 392 -99 b 256 -104 354 -111 263 -146 b 343 3 253 -86 290 -37 b 771 356 532 21 672 171 l 668 356 b 329 165 563 192 414 142 b 271 208 301 172 283 189 b 619 488 408 238 600 328 b 428 649 633 601 528 654 b 38 300 254 640 75 493 b 203 13 13 172 65 50 b 131 -151 158 -37 125 -94 b 379 -239 136 -254 282 -282 z m 472 507 b 257 314 513 472 390 358 b 274 368 261 335 267 353 b 472 507 318 468 435 539 z "},"=":{"ha":699,"x_min":0,"x_max":0,"o":"m 625 499 l 686 651 l 254 651 l 200 499 z m 556 276 l 617 429 l 185 429 l 131 276 z "},"!":{"ha":593,"x_min":0,"x_max":0,"o":"m 440 304 b 778 983 499 431 707 849 l 531 983 b 276 301 469 829 308 400 z m 418 118 b 333 243 439 186 406 240 b 172 126 264 246 193 196 b 253 0 147 56 185 3 b 418 118 325 -3 393 46 z "},"f":{"ha":339,"x_min":0,"x_max":0,"o":"m 136 528 b -403 -200 8 199 -150 -185 b -585 -128 -462 -204 -537 -172 l -749 -346 b -393 -464 -692 -424 -526 -482 b 333 528 -6 -411 182 140 l 414 528 l 465 639 l 375 639 b 535 869 404 718 464 851 b 651 810 588 883 629 843 l 789 943 b 544 1042 724 1013 640 1051 b 182 639 367 1024 263 839 l 107 639 l 61 528 z "},"ﬀ":{"ha":651,"x_min":0,"x_max":0,"o":"m 674 1014 b 372 957 590 1054 461 1043 b 183 639 292 881 233 763 l 108 639 l 63 528 l 138 528 b -401 -131 10 199 -149 -115 b -583 -58 -461 -135 -536 -103 l -747 -276 b -392 -394 -690 -354 -525 -412 b 335 528 -4 -342 183 140 l 449 528 b 126 -153 376 340 268 69 b -626 -489 -81 -476 -431 -558 l -746 -724 b 290 -264 -396 -889 50 -685 b 646 528 444 6 567 326 l 726 528 l 778 639 l 688 639 b 882 875 717 715 775 869 b 975 838 922 878 957 864 l 1118 950 b 857 1042 1053 1019 953 1051 b 494 639 679 1024 575 839 l 376 639 b 564 874 406 717 454 886 z "},"g":{"ha":699,"x_min":0,"x_max":0,"o":"m -264 -300 b 93 -400 -204 -378 -39 -418 b 804 639 633 -326 576 375 l 575 639 b 542 571 563 617 551 594 b 400 638 511 611 460 638 b 56 353 242 635 113 481 b 182 0 -25 165 17 1 b 388 103 267 -1 338 47 b 76 -168 329 -44 244 -158 b -108 -96 17 -172 -60 -140 z m 365 235 b 254 251 311 190 257 197 b 365 474 250 319 310 431 b 472 454 417 517 472 508 b 365 235 472 399 418 279 z "},"ß":{"ha":900,"x_min":0,"x_max":0,"o":"m 988 958 b 344 903 949 1247 517 1225 b -362 -129 192 618 -40 -8 l -108 -336 b 175 85 -6 -249 90 -90 b 493 -32 257 6 374 -35 b 747 621 817 -21 1032 354 b 988 958 831 639 1013 769 z m 258 265 b 510 840 364 507 450 744 b 826 893 654 1074 864 1024 b 551 749 801 807 671 724 l 489 606 b 668 321 550 597 704 454 b 364 318 636 208 449 182 z "},"`":{"ha":264,"x_min":0,"x_max":0,"o":"m 315 742 l 196 949 l 38 949 l 228 742 z "},">":{"ha":678,"x_min":0,"x_max":0,"o":"m 704 444 l 724 542 l 506 803 l 318 731 l 506 506 l 196 308 l 356 190 z "},"h":{"ha":738,"x_min":0,"x_max":0,"o":"m 292 388 b 440 393 351 493 474 482 l 367 232 b 486 0 301 85 361 0 b 910 354 604 0 761 106 l 817 367 b 601 174 753 278 644 161 b 667 401 572 182 576 204 b 617 629 724 519 697 610 b 369 567 571 639 476 643 l 556 983 l 307 983 b -64 0 308 979 38 317 l 147 0 z "},"˝":{"ha":810,"x_min":0,"x_max":0,"o":"m 321 742 l 511 949 l 353 949 l 233 742 z m 533 742 l 724 949 l 565 949 l 446 742 z "},"-":{"ha":679,"x_min":0,"x_max":0,"o":"m 583 401 l 644 554 l 213 554 l 158 401 z "},"i":{"ha":374,"x_min":0,"x_max":0,"o":"m 283 724 b 490 763 331 679 425 700 b 519 957 556 826 571 917 b 314 918 471 1001 381 981 b 283 724 249 853 233 767 z m 192 639 l 25 254 b 122 3 -37 107 -1 3 b 546 353 240 3 397 104 l 453 367 b 238 174 389 278 281 161 b 303 401 208 182 199 208 l 429 639 z "},"í":{"ha":374,"x_min":0,"x_max":0,"o":"m 192 639 l 25 254 b 122 3 -37 107 -1 3 b 546 353 240 3 397 104 l 453 367 b 238 174 389 278 281 161 b 303 401 208 182 199 208 l 429 639 z m 372 742 l 660 949 l 446 949 l 229 742 z "},"î":{"ha":374,"x_min":0,"x_max":0,"o":"m 192 639 l 25 254 b 122 3 -37 107 -1 3 b 546 353 240 3 397 104 l 453 367 b 238 174 389 278 281 161 b 303 401 208 182 199 208 l 429 639 z m 136 735 l 301 735 l 393 814 l 440 735 l 571 735 l 451 942 l 382 942 z "},"ï":{"ha":374,"x_min":0,"x_max":0,"o":"m 192 639 l 25 254 b 122 3 -37 107 -1 3 b 546 353 240 3 397 104 l 453 367 b 238 174 389 278 281 161 b 303 401 208 182 199 208 l 429 639 z m 622 885 b 549 976 633 936 603 976 b 438 885 497 976 449 936 b 510 792 426 831 458 792 b 622 885 564 792 611 831 z m 358 885 b 285 976 369 936 339 976 b 174 885 233 976 185 936 b 246 792 163 831 194 792 b 358 885 300 792 347 831 z "},"ì":{"ha":374,"x_min":0,"x_max":0,"o":"m 192 639 l 25 254 b 122 3 -37 107 -1 3 b 546 353 240 3 397 104 l 453 367 b 238 174 389 278 281 161 b 303 401 208 182 199 208 l 429 639 z m 422 742 l 303 949 l 144 949 l 335 742 z "},"j":{"ha":317,"x_min":0,"x_max":0,"o":"m 256 724 b 463 763 303 679 397 700 b 492 957 528 826 543 917 b 286 918 443 1001 353 981 b 256 724 221 853 206 767 z m -735 -383 b -378 -483 -675 -461 -510 -501 b 431 639 163 -410 203 375 l 174 639 b 75 351 149 567 117 458 b -394 -251 -36 72 -135 -236 b -579 -179 -454 -256 -531 -224 z "},"k":{"ha":692,"x_min":0,"x_max":0,"o":"m 151 0 b 215 171 175 67 196 124 b 231 206 219 183 225 194 b 435 1 244 110 319 1 b 857 349 625 1 765 199 l 757 349 b 535 168 707 278 626 186 b 453 224 486 158 454 203 b 699 478 557 265 675 361 b 560 653 718 572 668 653 b 368 564 508 653 428 621 l 560 983 l 317 983 b -53 0 318 979 49 317 z m 468 383 b 244 238 424 319 311 264 b 431 467 314 388 374 458 b 468 383 472 474 504 436 z "},"l":{"ha":375,"x_min":0,"x_max":0,"o":"m 328 981 l 32 274 b 114 0 -40 97 6 11 b 546 349 233 -12 397 100 l 457 367 b 238 174 393 278 281 161 b 296 400 208 182 208 214 l 575 981 z "},"<":{"ha":661,"x_min":0,"x_max":0,"o":"m 215 549 l 196 451 l 414 190 l 601 263 l 414 488 l 724 685 l 564 803 z "},"₤":{"ha":1132,"x_min":0,"x_max":0,"o":"m 924 592 b 874 967 1011 707 1033 896 b 483 815 756 1019 592 990 b 369 554 436 738 401 646 l 226 554 l 172 401 l 318 401 b 215 188 290 321 258 246 b 49 147 167 185 113 174 l 94 0 b 626 -28 229 76 438 -25 b 1051 194 807 -31 979 35 l 868 301 b 574 135 829 196 694 129 b 429 157 519 138 472 146 b 517 401 460 224 490 315 l 764 401 l 825 554 l 563 554 b 790 856 663 863 747 872 b 751 689 811 847 851 800 z "},"m":{"ha":1051,"x_min":0,"x_max":0,"o":"m 674 549 b 600 636 678 599 647 632 b 394 567 547 640 490 635 l 428 639 l 182 639 l -90 0 l 143 0 l 272 331 b 417 360 343 478 467 490 l 278 0 l 501 0 l 622 353 b 760 399 675 492 793 489 l 683 238 b 801 0 618 90 676 0 b 1224 357 919 0 1075 108 l 1122 353 b 917 174 1081 281 960 161 b 985 382 888 182 903 226 b 901 639 1065 535 999 638 b 674 549 849 640 753 625 z "},"µ":{"ha":1189,"x_min":0,"x_max":0,"o":"m 1107 3 b 1468 1168 1049 354 1378 999 l 1319 1210 b 665 231 1251 1081 878 186 b 1007 1204 492 267 894 975 l 871 1249 b -132 -156 669 831 301 154 l 42 -335 b 407 113 149 -229 283 -60 b 549 0 428 39 497 4 b 900 269 657 -10 797 111 b 856 -126 868 153 840 -32 z "},"×":{"ha":811,"x_min":0,"x_max":0,"o":"m 128 226 l 314 226 l 479 393 l 551 226 l 729 228 l 578 504 l 849 783 l 631 783 l 519 646 l 465 783 l 265 783 l 413 529 z "},"n":{"ha":729,"x_min":0,"x_max":0,"o":"m 428 639 l 182 639 l -90 0 l 154 0 l 272 331 b 436 399 347 488 472 494 l 360 238 b 478 3 294 90 353 3 b 896 349 596 3 747 100 l 797 349 b 593 174 733 260 636 161 b 661 382 564 182 579 226 b 600 636 742 535 690 628 b 394 567 547 640 490 635 z "},"ń":{"ha":729,"x_min":0,"x_max":0,"o":"m 428 639 l 182 639 l -90 0 l 154 0 l 272 331 b 436 399 347 488 472 494 l 360 238 b 478 3 294 90 353 3 b 896 349 596 3 747 100 l 797 349 b 593 174 733 260 636 161 b 661 382 564 182 579 226 b 600 636 742 535 690 628 b 394 567 547 640 490 635 z m 517 739 l 707 946 l 549 946 l 429 739 z "},"ň":{"ha":729,"x_min":0,"x_max":0,"o":"m 428 639 l 182 639 l -90 0 l 154 0 l 272 331 b 436 399 347 488 472 494 l 360 238 b 478 3 294 90 353 3 b 896 349 596 3 747 100 l 797 349 b 593 174 733 260 636 161 b 661 382 564 182 579 226 b 600 636 742 535 690 628 b 394 567 547 640 490 635 z m 697 946 l 574 946 l 482 867 l 435 946 l 304 946 l 424 739 l 493 739 z "},"ñ":{"ha":729,"x_min":0,"x_max":0,"o":"m 428 639 l 182 639 l -90 0 l 154 0 l 272 331 b 436 399 347 488 472 494 l 360 238 b 478 3 294 90 353 3 b 896 349 596 3 747 100 l 797 349 b 593 174 733 260 636 161 b 661 382 564 182 579 226 b 600 636 742 535 690 628 b 394 567 547 640 490 635 z m 686 914 b 618 829 689 863 647 831 b 365 958 517 824 492 963 b 168 735 276 956 182 882 l 308 735 b 367 838 296 775 331 835 b 610 714 450 844 481 717 b 818 908 735 711 804 836 z "},"#":{"ha":936,"x_min":0,"x_max":0,"o":"m 175 236 l 38 0 l 214 0 l 346 233 l 464 232 l 329 0 l 506 0 l 635 228 l 758 226 l 847 379 l 721 379 l 794 508 l 904 507 l 993 660 l 879 660 l 1008 886 l 846 886 l 713 660 l 588 660 l 717 886 l 554 886 l 422 660 l 264 660 l 183 519 l 339 517 l 258 379 l 118 379 l 38 239 z m 429 379 l 506 514 l 626 511 l 550 379 z "},"o":{"ha":688,"x_min":0,"x_max":0,"o":"m 89 446 b 265 -1 -8 279 29 39 b 674 331 483 -39 643 133 b 496 638 696 476 631 600 b 89 446 349 678 185 615 z m 515 325 b 325 183 486 249 422 161 b 265 354 271 196 236 263 b 474 522 293 450 386 550 b 515 325 531 504 547 415 z "},"ó":{"ha":722,"x_min":0,"x_max":0,"o":"m 49 293 b 239 0 25 119 117 28 b 672 260 325 -19 557 -19 b 464 654 743 457 694 640 b 49 293 283 665 79 514 z m 378 182 b 272 347 276 131 226 221 b 468 528 301 425 381 544 b 378 182 558 508 510 264 z m 518 742 l 708 949 l 550 949 l 431 742 z "},"ô":{"ha":722,"x_min":0,"x_max":0,"o":"m 49 293 b 239 0 25 119 117 28 b 672 260 325 -19 557 -19 b 464 654 743 457 694 640 b 49 293 283 665 79 514 z m 378 182 b 272 347 276 131 226 221 b 468 528 301 425 381 544 b 378 182 558 508 510 264 z m 282 735 l 447 735 l 539 814 l 586 735 l 717 735 l 597 942 l 528 942 z "},"ö":{"ha":722,"x_min":0,"x_max":0,"o":"m 49 293 b 239 0 25 119 117 28 b 672 260 325 -19 557 -19 b 464 654 743 457 694 640 b 49 293 283 665 79 514 z m 378 182 b 272 347 276 131 226 221 b 468 528 301 425 381 544 b 378 182 558 508 510 264 z m 719 842 b 646 933 731 893 700 933 b 535 842 594 933 546 893 b 607 749 524 788 556 749 b 719 842 661 749 708 788 z m 456 842 b 382 933 467 893 436 933 b 271 842 331 933 282 893 b 343 749 260 788 292 749 b 456 842 397 749 444 788 z "},"œ":{"ha":967,"x_min":0,"x_max":0,"o":"m 697 165 b 639 208 669 172 651 189 b 988 488 776 238 968 328 b 796 649 1001 601 896 654 b 610 588 732 646 668 624 b 500 647 582 617 544 638 b 56 383 328 683 139 588 b 225 0 -18 201 49 40 b 492 49 322 -22 415 0 b 711 3 543 13 615 -6 b 1139 356 900 21 1040 171 l 1036 356 b 967 268 1014 322 990 293 b 697 165 872 174 765 146 z m 406 300 b 403 194 399 264 397 228 b 314 186 376 182 346 178 b 261 351 261 199 233 264 b 488 518 290 449 396 549 b 508 503 496 514 503 508 b 406 300 458 446 421 376 z m 840 507 b 665 329 876 475 782 381 l 628 326 b 642 368 632 342 636 356 b 840 507 686 468 803 539 z "},"˛":{"ha":622,"x_min":0,"x_max":0,"o":"m 372 -87 b 236 -93 335 -100 243 -135 b 414 67 233 -67 321 31 l 347 156 b 111 -140 260 106 101 -21 b 360 -228 117 -243 263 -271 z "},"ò":{"ha":708,"x_min":0,"x_max":0,"o":"m 35 293 b 225 0 11 119 103 28 b 658 260 311 -19 543 -19 b 450 654 729 457 681 640 b 35 293 269 665 65 514 z m 364 182 b 258 347 263 131 213 221 b 454 528 288 425 367 544 b 364 182 544 508 496 264 z m 493 742 l 374 949 l 215 949 l 406 742 z "},"ő":{"ha":722,"x_min":0,"x_max":0,"o":"m 49 293 b 239 0 25 119 117 28 b 672 260 325 -19 557 -19 b 464 654 743 457 694 640 b 49 293 283 665 79 514 z m 378 182 b 272 347 276 131 226 221 b 468 528 301 425 381 544 b 378 182 558 508 510 264 z m 426 742 l 617 949 l 458 949 l 339 742 z m 639 742 l 829 949 l 671 949 l 551 742 z "},"õ":{"ha":708,"x_min":0,"x_max":0,"o":"m 56 383 b 225 0 -18 201 49 40 b 674 331 442 -50 633 117 b 500 647 700 475 640 618 b 56 383 328 683 139 588 z m 515 317 b 314 186 483 242 406 164 b 261 351 261 199 233 264 b 488 518 290 449 396 549 b 515 317 542 497 553 404 z m 646 900 b 578 815 649 849 607 817 b 325 944 476 810 451 949 b 128 721 236 942 142 868 l 268 721 b 326 824 256 761 290 821 b 569 700 410 831 440 703 b 778 894 694 697 764 822 z "},"p":{"ha":719,"x_min":0,"x_max":0,"o":"m 33 -336 b 157 49 65 -211 110 -76 b 656 207 297 -44 524 -3 b 594 642 750 357 769 600 b 376 576 540 654 442 635 l 474 781 l 268 781 b -218 -336 269 776 -106 -19 z m 489 300 b 225 214 435 192 293 125 b 303 381 251 276 278 333 b 451 503 353 476 410 504 b 489 300 531 499 532 386 z "},"(":{"ha":644,"x_min":0,"x_max":0,"o":"m 183 624 b 358 -271 40 265 58 -121 l 400 -183 b 260 -11 338 -179 269 -96 b 701 1025 207 428 526 894 b 940 1081 778 1081 888 1111 l 974 1169 b 183 624 629 1215 319 965 z "},")":{"ha":636,"x_min":0,"x_max":0,"o":"m -67 -99 b 681 508 275 -139 558 54 b 296 1169 804 964 692 1132 l 288 1113 b 446 532 493 1090 569 988 b -60 -60 322 76 167 -86 z "},"%":{"ha":1256,"x_min":0,"x_max":0,"o":"m 665 694 b 582 983 706 790 739 978 b 293 758 464 986 356 881 b 338 418 253 679 189 454 b 665 694 474 385 608 553 z m 463 794 b 550 797 508 849 547 849 b 468 607 554 747 518 661 b 383 604 417 553 382 553 b 463 794 379 656 415 740 z m 1182 982 l 1019 982 l 232 0 l 408 0 z m 1150 285 b 1067 574 1190 381 1224 568 b 778 349 949 576 840 471 b 822 8 738 269 675 44 b 1150 285 958 -25 1093 143 z m 947 385 b 1035 388 993 439 1032 439 b 953 197 1039 338 1003 251 b 868 194 901 143 867 143 b 947 385 864 246 900 331 z "},".":{"ha":410,"x_min":0,"x_max":0,"o":"m 308 93 b 235 185 319 144 289 185 b 124 93 183 185 135 144 b 196 0 111 39 144 0 b 308 93 250 0 296 39 z "},"‰":{"ha":1613,"x_min":0,"x_max":0,"o":"m 1081 864 b 986 1039 1124 942 1021 1031 l 272 4 b 463 40 303 -25 400 -36 z m 671 906 b 556 983 650 960 610 985 b 247 496 347 989 189 654 b 535 507 288 386 417 392 b 671 906 647 618 707 800 z m 446 794 b 533 797 489 849 528 849 b 463 607 540 747 508 661 b 378 604 414 553 379 553 b 446 794 371 656 401 740 z m 1160 489 b 1044 567 1140 543 1101 568 b 738 79 840 572 678 238 b 1025 90 776 -33 907 -22 b 1160 489 1138 201 1196 382 z m 931 375 b 1017 378 974 429 1013 429 b 946 188 1021 328 992 243 b 861 185 897 133 863 133 b 931 375 854 236 886 321 z m 1604 489 b 1489 567 1585 543 1546 568 b 1182 79 1285 572 1122 238 b 1469 90 1221 -33 1351 -22 b 1604 489 1582 201 1640 382 z m 1375 375 b 1461 378 1418 429 1457 429 b 1390 188 1465 328 1436 243 b 1306 185 1342 133 1307 133 b 1375 375 1299 236 1331 321 z "},"+":{"ha":683,"x_min":0,"x_max":0,"o":"m 449 401 l 583 401 l 644 554 l 501 554 l 544 681 l 382 681 l 336 554 l 213 554 l 158 401 l 281 401 l 232 265 l 401 265 z "},"±":{"ha":697,"x_min":0,"x_max":0,"o":"m 489 408 l 631 408 l 694 582 l 553 582 l 607 729 l 415 729 l 363 582 l 213 582 l 154 408 l 300 408 l 244 254 l 433 254 z m 496 0 l 560 174 l 106 174 l 47 0 z "},"q":{"ha":726,"x_min":0,"x_max":0,"o":"m 364 -347 b 826 639 494 47 697 368 l 593 639 b 536 526 593 638 569 593 b 525 553 533 536 529 544 b 397 624 494 599 450 622 b 56 353 240 628 113 481 b 182 0 -25 165 17 0 b 286 25 215 0 251 8 b 126 -347 221 -111 161 -247 z m 350 225 b 243 257 294 181 239 200 b 360 464 249 338 303 421 b 467 444 413 501 468 499 b 350 225 464 389 404 269 z "},"?":{"ha":763,"x_min":0,"x_max":0,"o":"m 439 301 b 893 731 506 465 858 504 b 626 994 914 865 824 989 b 238 631 463 999 232 871 l 476 631 b 610 818 457 721 536 825 b 588 597 690 811 728 717 b 304 301 482 501 340 454 z m 446 118 b 361 243 467 186 433 240 b 200 126 292 246 221 196 b 281 0 175 56 213 3 b 446 118 353 -3 421 46 z "},"\"":{"ha":664,"x_min":0,"x_max":0,"o":"m 494 968 b 421 1060 501 1019 475 1060 b 310 968 369 1060 321 1019 b 372 875 299 918 325 879 b 297 794 363 854 342 821 b 494 968 450 817 490 929 z m 703 968 b 629 1060 710 1019 683 1060 b 518 968 578 1060 529 1019 b 581 875 507 918 533 879 b 506 794 571 854 550 821 b 703 968 658 817 699 929 z "},"‚":{"ha":1157,"x_min":0,"x_max":0,"o":"m 557 93 b 483 185 564 144 538 185 b 372 93 432 185 383 144 b 435 0 361 43 388 4 b 360 -81 425 -21 404 -54 b 557 93 513 -58 553 54 z "},"'":{"ha":535,"x_min":0,"x_max":0,"o":"m 494 968 b 421 1060 501 1019 475 1060 b 310 968 369 1060 321 1019 b 372 875 299 918 325 879 b 297 794 363 854 342 821 b 494 968 450 817 490 929 z "},"r":{"ha":579,"x_min":0,"x_max":0,"o":"m 57 192 b 271 507 119 267 235 449 b 322 481 282 496 304 486 b 175 197 264 397 196 301 b 314 3 151 81 224 3 b 750 349 432 3 601 100 l 657 367 b 442 174 593 278 485 161 b 589 490 413 182 394 244 l 507 610 l 357 631 b 404 708 361 643 389 688 l 240 792 b 207 574 168 714 178 606 b -10 246 89 374 31 299 z "},"ŕ":{"ha":579,"x_min":0,"x_max":0,"o":"m 57 192 b 271 507 119 267 235 449 b 322 481 282 496 304 486 b 175 197 264 397 196 301 b 314 3 151 81 224 3 b 750 349 432 3 601 100 l 657 367 b 442 174 593 278 485 161 b 589 490 413 182 394 244 l 507 610 l 357 631 b 404 708 361 643 389 688 l 240 792 b 207 574 168 714 178 606 b -10 246 89 374 31 299 z m 553 756 l 743 963 l 585 963 l 465 756 z "},"ř":{"ha":579,"x_min":0,"x_max":0,"o":"m 57 192 b 271 507 119 267 235 449 b 322 481 282 496 304 486 b 175 197 264 397 196 301 b 314 3 151 81 224 3 b 750 349 432 3 601 100 l 657 367 b 442 174 593 278 485 161 b 589 490 413 182 394 244 l 507 610 l 357 631 b 404 708 361 643 389 688 l 240 792 b 207 574 168 714 178 606 b -10 246 89 374 31 299 z m 736 957 l 613 957 l 521 878 l 474 957 l 343 957 l 463 750 l 532 750 z "},"®":{"ha":1089,"x_min":0,"x_max":0,"o":"m 676 519 b 629 403 781 524 756 403 b 676 519 629 403 676 518 z m 604 603 b 432 176 600 578 568 504 l 544 176 l 590 306 l 631 306 b 665 157 618 250 636 178 l 789 211 b 728 326 768 222 725 281 b 832 414 767 343 803 371 b 736 603 890 499 858 603 z m 461 -49 b 1114 431 832 -111 1083 185 b 817 814 1150 717 939 807 b 249 476 597 826 372 710 b 461 -49 126 226 213 -7 z m 794 726 b 967 360 1018 719 1033 535 b 490 42 888 144 675 13 b 372 435 343 64 276 239 b 794 726 483 661 675 731 z "},"˚":{"ha":790,"x_min":0,"x_max":0,"o":"m 407 724 b 560 813 478 713 543 749 b 447 961 581 889 521 958 b 310 854 386 965 322 921 b 407 724 300 792 340 733 z m 476 871 b 467 806 494 853 489 818 b 393 810 443 793 411 794 b 403 878 372 829 378 865 b 476 871 426 890 458 888 z "},"s":{"ha":524,"x_min":0,"x_max":0,"o":"m -58 196 b 217 -11 -44 67 89 -12 b 510 239 363 -10 490 92 b 426 585 532 410 378 485 l 260 672 l 182 533 b 93 390 154 488 124 436 b -31 218 47 319 0 253 z m 175 349 b 232 442 189 371 214 408 b 290 325 258 400 285 353 b 203 190 303 254 269 190 b 107 250 165 190 129 211 b 175 349 131 281 153 313 z "},"ś":{"ha":597,"x_min":0,"x_max":0,"o":"m 219 -11 b 576 260 394 -25 561 82 b 431 639 590 419 406 539 l 246 639 b 93 390 224 593 165 500 b -36 214 46 317 -4 246 l -33 213 b 219 -11 -19 54 118 -3 z m 256 158 b 143 301 217 156 133 179 l 175 349 b 251 476 194 379 233 439 b 336 325 282 439 318 379 b 256 158 357 265 344 165 z m 372 742 l 563 949 l 404 949 l 285 742 z "},"š":{"ha":597,"x_min":0,"x_max":0,"o":"m 219 -11 b 576 260 394 -25 561 82 b 431 639 590 419 406 539 l 246 639 b 93 390 224 593 165 500 b -36 214 46 317 -4 246 l -33 213 b 219 -11 -19 54 118 -3 z m 256 158 b 143 301 217 156 133 179 l 175 349 b 251 476 194 379 233 439 b 336 325 282 439 318 379 b 256 158 357 265 344 165 z m 600 949 l 476 949 l 385 869 l 338 949 l 207 949 l 326 742 l 396 742 z "},"ş":{"ha":597,"x_min":0,"x_max":0,"o":"m 356 3 b 576 260 472 38 565 129 b 431 639 590 419 406 539 l 246 639 b 93 390 224 593 165 500 b -36 214 46 317 -4 246 l -33 213 b 192 -7 -21 67 94 7 l 136 -62 l 203 -151 b 294 -187 254 -147 294 -169 b 122 -185 294 -253 226 -246 l 18 -307 b 393 -262 153 -449 344 -376 b 294 -54 428 -181 394 -72 z m 256 158 b 143 301 217 156 133 179 l 175 349 b 251 476 194 379 233 439 b 336 325 282 439 318 379 b 256 158 357 265 344 165 z "},"§":{"ha":1385,"x_min":0,"x_max":0,"o":"m 1506 771 b 1849 1101 1593 951 1719 1031 l 1700 1263 b 1556 1107 1656 1235 1604 1176 b 1274 1224 1511 1193 1406 1250 b 1032 968 1147 1197 1051 1094 b 1026 918 1029 951 1028 935 b 950 917 1001 921 975 921 b 678 642 831 899 707 819 b 765 124 644 439 753 311 b 436 -253 782 -101 592 -289 b 547 181 217 -204 304 161 l 399 471 b 75 153 218 396 119 278 b 449 -447 -31 -149 125 -429 b 997 -65 675 -461 915 -308 b 1350 332 1201 -24 1338 93 b 1232 965 1361 568 1189 806 b 1350 1068 1261 1040 1307 1068 b 1438 897 1453 1069 1457 978 b 1407 811 1424 865 1413 836 z m 1117 365 b 1017 194 1111 260 1072 215 b 876 622 979 365 857 489 b 1058 686 894 733 993 763 b 1117 365 1086 576 1121 468 z "},";":{"ha":476,"x_min":0,"x_max":0,"o":"m 388 153 b 289 276 397 222 361 276 b 139 153 219 276 154 222 b 225 28 124 86 160 33 b 122 -81 210 0 182 -44 b 388 153 331 -50 382 101 z m 521 626 b 421 751 536 697 494 751 b 269 626 351 751 285 697 b 368 500 256 553 299 500 b 521 626 442 500 507 553 z "},"/":{"ha":529,"x_min":0,"x_max":0,"o":"m 926 1039 l 750 1039 l 38 0 l 228 0 z "}," ":{"ha":504,"x_min":0,"x_max":0,"o":""},"£":{"ha":1117,"x_min":0,"x_max":0,"o":"m 924 592 b 874 967 1011 707 1033 896 b 483 815 756 1019 592 990 b 369 554 436 738 401 646 l 226 554 l 172 401 l 318 401 b 232 211 293 331 267 265 b 49 147 169 211 107 196 l 94 0 b 626 -28 236 131 438 -15 b 1051 194 796 -39 979 35 l 868 301 b 574 135 829 196 694 121 b 435 171 533 139 486 154 b 517 401 464 236 492 322 l 764 401 l 825 554 l 563 554 b 790 856 663 863 747 872 b 751 689 811 847 851 800 z "},"t":{"ha":375,"x_min":0,"x_max":0,"o":"m 138 528 l 32 274 b 114 0 -40 97 6 11 b 546 353 233 -12 397 104 l 453 367 b 238 174 389 278 281 161 b 296 400 208 182 208 214 l 357 528 l 453 528 l 500 639 l 410 639 l 575 981 l 328 981 l 185 639 l 110 639 l 68 528 z "},"˜":{"ha":892,"x_min":0,"x_max":0,"o":"m 610 904 b 542 819 613 853 571 821 b 289 949 440 814 415 953 b 92 725 200 946 106 872 l 232 725 b 290 828 219 765 254 825 b 533 704 374 835 404 707 b 742 899 658 701 728 826 z "},"™":{"ha":692,"x_min":0,"x_max":0,"o":"m 404 915 l 475 915 l 508 988 l 274 988 l 236 914 l 322 914 l 222 678 l 311 678 z m 400 678 l 479 678 l 547 849 l 536 703 l 590 703 l 693 864 l 639 678 l 715 678 l 801 988 l 701 988 l 614 842 l 628 988 l 529 988 z "},"u":{"ha":750,"x_min":0,"x_max":0,"o":"m 192 639 l 25 254 b 122 3 -37 107 -1 3 b 371 124 194 3 281 39 b 500 0 372 47 415 0 b 924 356 618 0 775 107 l 826 367 b 615 174 761 269 658 161 b 681 401 586 182 576 208 l 807 639 l 569 639 l 446 356 b 238 174 382 247 278 161 b 303 401 208 182 199 208 l 429 639 z "},"ú":{"ha":750,"x_min":0,"x_max":0,"o":"m 192 639 l 25 254 b 122 3 -37 107 -1 3 b 371 124 194 3 281 39 b 500 0 372 47 415 0 b 924 356 618 0 775 107 l 826 367 b 615 174 761 269 658 161 b 681 401 586 182 576 208 l 807 639 l 569 639 l 446 356 b 238 174 382 247 278 161 b 303 401 208 182 199 208 l 429 639 z m 533 742 l 724 949 l 565 949 l 446 742 z "},"û":{"ha":750,"x_min":0,"x_max":0,"o":"m 192 639 l 25 254 b 122 3 -37 107 -1 3 b 371 124 194 3 281 39 b 500 0 372 47 415 0 b 924 356 618 0 775 107 l 826 367 b 615 174 761 269 658 161 b 681 401 586 182 576 208 l 807 639 l 569 639 l 446 356 b 238 174 382 247 278 161 b 303 401 208 182 199 208 l 429 639 z m 296 735 l 461 735 l 553 814 l 600 735 l 731 735 l 611 942 l 542 942 z "},"ü":{"ha":750,"x_min":0,"x_max":0,"o":"m 192 639 l 25 254 b 122 3 -37 107 -1 3 b 371 124 194 3 281 39 b 500 0 372 47 415 0 b 924 356 618 0 775 107 l 826 367 b 615 174 761 269 658 161 b 681 401 586 182 576 208 l 807 639 l 569 639 l 446 356 b 238 174 382 247 278 161 b 303 401 208 182 199 208 l 429 639 z m 518 847 b 444 939 529 899 499 939 b 333 847 393 939 344 899 b 406 754 322 793 354 754 b 518 847 460 754 507 793 z m 782 847 b 708 939 793 899 763 939 b 597 847 657 939 608 899 b 669 754 586 793 618 754 b 782 847 724 754 771 793 z "},"ù":{"ha":750,"x_min":0,"x_max":0,"o":"m 192 639 l 25 254 b 122 3 -37 107 -1 3 b 371 124 194 3 281 39 b 500 0 372 47 415 0 b 924 356 618 0 775 107 l 826 367 b 615 174 761 269 658 161 b 681 401 586 182 576 208 l 807 639 l 569 639 l 446 356 b 238 174 382 247 278 161 b 303 401 208 182 199 208 l 429 639 z m 514 742 l 394 949 l 236 949 l 426 742 z "},"ű":{"ha":750,"x_min":0,"x_max":0,"o":"m 192 639 l 25 254 b 122 3 -37 107 -1 3 b 371 124 194 3 281 39 b 500 0 372 47 415 0 b 924 356 618 0 775 107 l 826 367 b 615 174 761 269 658 161 b 681 401 586 182 576 208 l 807 639 l 569 639 l 446 356 b 238 174 382 247 278 161 b 303 401 208 182 199 208 l 429 639 z m 632 742 l 822 949 l 664 949 l 544 742 z m 419 742 l 610 949 l 451 949 l 332 742 z "},"_":{"ha":854,"x_min":0,"x_max":0,"o":"m 676 -272 l 760 -96 l 67 -96 l -3 -272 z "},"ů":{"ha":750,"x_min":0,"x_max":0,"o":"m 192 639 l 25 254 b 122 3 -37 107 -1 3 b 371 124 194 3 281 39 b 500 0 372 47 415 0 b 924 356 618 0 775 107 l 826 367 b 615 174 761 269 658 161 b 681 401 586 182 576 208 l 807 639 l 569 639 l 446 356 b 238 174 382 247 278 161 b 303 401 208 182 199 208 l 429 639 z m 519 729 b 672 818 590 718 656 754 b 560 967 693 894 633 964 b 422 860 499 971 435 926 b 519 729 413 797 453 739 z m 589 876 b 579 811 607 858 601 824 b 506 815 556 799 524 800 b 515 883 485 835 490 871 b 589 876 539 896 571 893 z "},"v":{"ha":635,"x_min":0,"x_max":0,"o":"m 508 639 b 214 167 393 346 296 133 b 418 639 183 179 167 232 l 194 639 b 75 397 153 558 113 478 b 157 -1 -64 115 65 14 b 622 401 313 -28 486 90 l 726 639 z "},"w":{"ha":964,"x_min":0,"x_max":0,"o":"m 865 639 b 738 340 825 540 788 442 b 554 154 650 165 582 131 b 772 639 538 168 521 232 l 549 639 b 429 397 507 558 467 478 b 219 157 358 276 272 143 b 431 639 199 163 179 232 l 193 639 b 36 300 135 528 81 411 b 156 -1 -33 122 31 -1 b 375 129 238 -1 317 58 b 511 -1 386 50 450 4 b 985 401 701 -21 875 151 l 1089 639 z "},"x":{"ha":786,"x_min":0,"x_max":0,"o":"m 626 639 b 482 389 596 546 544 461 b 413 639 461 453 438 533 l 211 639 b -10 246 119 433 31 297 l 57 192 b 240 457 118 264 201 394 b 315 247 267 372 292 303 b 97 185 240 201 164 178 l 74 -4 b 390 103 190 0 294 39 b 575 -1 449 19 506 0 b 951 350 711 -4 833 158 l 865 367 b 618 167 761 214 676 150 b 547 236 600 171 576 185 b 857 639 653 344 753 482 z "},"y":{"ha":715,"x_min":0,"x_max":0,"o":"m 324 -403 b 814 639 421 -17 672 365 l 581 639 b 460 401 581 638 529 539 b 238 174 375 256 276 163 b 303 401 208 182 199 208 l 429 639 l 192 639 l 25 254 b 122 3 -37 107 0 15 b 288 54 175 -3 229 11 b 86 -403 206 -115 128 -286 z "},"ý":{"ha":715,"x_min":0,"x_max":0,"o":"m 324 -403 b 814 639 421 -17 672 365 l 581 639 b 460 401 581 638 529 539 b 238 174 375 256 276 163 b 303 401 208 182 199 208 l 429 639 l 192 639 l 25 254 b 122 3 -37 107 0 15 b 288 54 175 -3 229 11 b 86 -403 206 -115 128 -286 z m 544 739 l 735 946 l 576 946 l 457 739 z "},"¥":{"ha":786,"x_min":0,"x_max":0,"o":"m 294 181 l 214 0 l 494 1 l 536 182 l 640 182 l 707 326 l 568 319 l 579 369 l 703 369 l 756 497 l 608 492 l 614 506 l 1107 932 l 789 932 l 556 679 l 444 936 l 167 936 l 410 518 l 406 490 l 260 493 l 222 365 l 361 365 l 342 310 l 217 306 l 171 181 z "},"z":{"ha":668,"x_min":0,"x_max":0,"o":"m -250 -244 b 107 -344 -190 -322 -25 -362 b 569 76 339 -312 543 -93 b 457 254 582 164 528 219 b 740 515 564 315 672 419 l 644 669 b 431 692 572 653 361 597 l 275 772 b 213 583 219 725 203 642 b -10 246 94 383 31 299 l 57 192 b 271 507 119 267 235 449 b 481 471 339 465 410 463 b 247 308 407 379 294 333 l 246 307 l 183 185 b 407 56 246 172 399 132 b -94 -40 415 -60 22 -199 z "},"ź":{"ha":668,"x_min":0,"x_max":0,"o":"m -250 -244 b 107 -344 -190 -322 -25 -362 b 569 76 339 -312 543 -93 b 457 254 582 164 528 219 b 740 515 564 315 672 419 l 644 669 b 431 692 572 653 361 597 l 275 772 b 213 583 219 725 203 642 b -10 246 94 383 31 299 l 57 192 b 271 507 119 267 235 449 b 481 471 339 465 410 463 b 247 308 407 379 294 333 l 247 307 l 246 307 l 246 306 l 183 185 b 407 56 246 172 399 132 b -94 -40 415 -60 22 -199 z m 554 753 l 744 960 l 586 960 l 467 753 z "},"ž":{"ha":668,"x_min":0,"x_max":0,"o":"m -250 -244 b 107 -344 -190 -322 -25 -362 b 569 76 339 -312 543 -93 b 457 254 582 164 528 219 b 740 515 564 315 672 419 l 644 669 b 431 692 572 653 361 597 l 275 772 b 213 583 219 725 203 642 b -10 246 94 383 31 299 l 57 192 b 271 507 119 267 235 449 b 481 471 339 465 410 463 b 247 308 407 379 294 333 l 247 307 l 246 307 l 246 306 l 183 185 b 407 56 246 172 399 132 b -94 -40 415 -60 22 -199 z m 742 978 l 618 978 l 526 899 l 479 978 l 349 978 l 468 771 l 538 771 z "},"G":{"ha":1463,"x_min":0,"x_max":0,"o":"m 765 238 b 1581 1051 1175 311 1708 789 b 519 685 1472 1274 906 1211 b 390 454 461 606 419 529 b 278 617 318 489 275 544 b 494 778 281 704 365 779 l 382 1079 b -4 665 168 1064 -3 892 b 344 242 -6 429 138 293 b 568 -68 342 83 419 -32 b 1046 74 717 -104 890 -42 b 629 -225 924 -104 783 -229 b 454 -139 569 -226 499 -187 l 263 -375 b 606 -506 314 -458 472 -512 b 1374 286 997 -487 1183 -135 l 1453 461 l 1260 461 l 1215 369 b 772 97 1089 203 900 85 b 649 221 693 104 656 153 b 765 238 688 225 726 231 z m 774 432 b 683 417 743 425 713 419 b 881 731 725 526 797 643 b 1447 956 1144 1013 1403 1032 b 774 432 1496 871 1192 522 z "},"F":{"ha":1306,"x_min":0,"x_max":0,"o":"m 826 513 l 997 513 b 396 104 843 264 622 67 b 233 214 336 111 271 160 l 13 -19 b 335 -196 51 -110 201 -185 b 1201 513 725 -229 994 100 l 1325 513 l 1371 639 l 1264 639 b 1503 1051 1365 851 1426 992 b 1975 1054 1661 1046 1822 1044 l 1843 1278 b 935 1200 1665 1225 1186 1218 b 243 779 633 1178 319 1106 b 617 336 186 532 351 321 l 742 636 b 518 817 604 617 488 686 b 942 1065 558 981 731 1057 b 1303 1060 1050 1068 1172 1064 b 1069 639 1240 965 1175 828 l 867 639 z "},"e":{"ha":538,"x_min":0,"x_max":0,"o":"m 146 490 b 161 392 138 454 144 421 b -36 193 49 364 -25 303 b 218 -7 -50 57 97 -7 b 711 356 426 -7 604 156 l 607 356 b 282 153 489 190 357 150 b 201 218 247 154 201 174 b 375 257 201 274 289 292 l 451 406 b 339 411 413 408 375 411 b 292 460 308 418 286 436 b 503 449 303 517 425 501 l 618 603 b 146 490 389 688 178 628 z "},"ż":{"ha":668,"x_min":0,"x_max":0,"o":"m 640 782 b 674 843 661 800 672 822 b 518 885 685 928 578 936 b 507 769 478 849 474 797 b 640 782 540 742 601 747 z m -250 -244 b 107 -344 -190 -322 -25 -362 b 569 76 339 -312 543 -93 b 457 254 582 164 528 219 b 740 515 564 315 672 419 l 644 669 b 431 692 572 653 361 597 l 275 772 b 213 583 219 725 203 642 b -10 246 94 383 31 299 l 57 192 b 271 507 119 267 235 449 b 481 471 339 465 410 463 b 247 308 407 379 294 333 l 246 307 l 183 185 b 407 56 246 172 399 132 b -94 -40 415 -60 22 -199 z "}}}
